<svg width="120" height="46" viewBox="0 0 120 46" fill="none" xmlns="http://www.w3.org/2000/svg">
<path d="M15.6063 32.1074H16.3498L16.5822 32.5593H15.8388L15.6063 32.1074Z" fill="#A38215"/>
<path d="M17.2416 31.2607H17.9851L16.3498 32.1074H15.6063L17.2416 31.2607Z" fill="#786010"/>
<path d="M23.0372 19.9961H23.7807L1.25949 32.0303H0.515995L23.0372 19.9961Z" fill="#786010"/>
<path d="M24.0352 18.3879H24.7787L23.7807 19.9961H23.0372L24.0352 18.3879Z" fill="#7F6610"/>
<path d="M24.0352 18.3879H24.7787L25.2096 18.6574H24.4661L24.0352 18.3879Z" fill="#9C7D14"/>
<path d="M24.2276 18.2075H24.9711L25.2096 18.6574H24.4661L24.2276 18.2075Z" fill="#A38215"/>
<path d="M24.2276 18.2075L24.4661 18.6574L24.0352 18.3879L23.0372 19.9961L0.515995 32.0303L0.0400391 31.1335L24.2276 18.2075Z" fill="#CBA21A"/>
<path d="M24.0352 18.3879L24.4661 18.6574L24.8949 18.926L17.2416 31.2607L15.6063 32.1074L15.8388 32.5593L15.4089 32.2908L23.0372 19.9961L24.0352 18.3879Z" fill="#CBA21A"/>
<path d="M24.8949 18.926H25.6384L17.9851 31.2607H17.2416L24.8949 18.926Z" fill="#7F6610"/>
<path d="M24.4661 18.6574H25.2096L25.6384 18.926H24.8949L24.4661 18.6574Z" fill="#9C7D14"/>
<path d="M40.358 19.2827H41.1025L41.3389 19.7326H40.5955L40.358 19.2827Z" fill="#A38215"/>
<path d="M40.358 19.2827L40.5955 19.7326L40.8279 20.1845L16.0702 33.0112L15.8388 32.5593L15.6063 32.1074L17.2416 31.2607L40.358 19.2827Z" fill="#CBA21A"/>
<path d="M40.5955 19.7326H41.3389L41.5714 20.1845H40.8279L40.5955 19.7326Z" fill="#A38215"/>
<path d="M40.8279 20.1845H41.5714L16.8147 33.0112H16.0702L40.8279 20.1845Z" fill="#786010"/>
<path d="M71.3863 3.29058H72.1298L41.5834 20.1785H40.8399L71.3863 3.29058Z" fill="#594B27"/>
<path d="M71.9454 2.37474H72.6889L72.1298 3.29058H71.3863L71.9454 2.37474Z" fill="#5F4F29"/>
<path d="M71.0416 2.31963H71.7851L72.6889 2.37474H71.9454L71.0416 2.31963Z" fill="#65542C"/>
<path d="M71.0416 2.31963L71.9454 2.37474L71.3863 3.29058L40.8399 20.1785L40.5955 19.7326L40.351 19.2867L71.0416 2.31963Z" fill="#977E41"/>
<path d="M71.9454 2.37474H72.6889L73.5306 2.42585H72.7871L71.9454 2.37474Z" fill="#65542C"/>
<path d="M72.8171 1.91783H73.5616L73.5306 2.42585H72.7871L72.8171 1.91783Z" fill="#6D5C2F"/>
<path d="M68.4634 1.14427H69.2069L73.5917 1.41081H72.8482L68.4634 1.14427Z" fill="#65542C"/>
<path d="M68.4634 1.14427L72.8482 1.41081L72.8171 1.91783L72.7871 2.42585L71.9454 2.37474L71.0416 2.31963L68.4023 2.15931L68.4634 1.14427Z" fill="#977E41"/>
<path d="M72.8482 1.41081H73.5917L73.5616 1.91783H72.8171L72.8482 1.41081Z" fill="#6D5C2F"/>
<path d="M72.8171 1.91783L73.249 2.18436L70.7239 6.31966L69.8612 5.7876L71.3863 3.29058L71.9454 2.37474L72.7871 2.42585L72.8171 1.91783Z" fill="#977E41"/>
<path d="M73.249 2.18436H73.9935L71.4684 6.31966H70.7239L73.249 2.18436Z" fill="#5F4F29"/>
<path d="M72.8171 1.91783H73.5616L73.9935 2.18436H73.249L72.8171 1.91783Z" fill="#746132"/>
<path d="M17.5433 37.0789C17.4815 36.5569 17.2308 36.1516 16.7912 35.8631C16.3516 35.5746 15.8124 35.4304 15.1736 35.4304C14.7065 35.4304 14.2978 35.506 13.9475 35.6571C13.6007 35.8082 13.3294 36.016 13.1336 36.2804C12.9413 36.5448 12.8451 36.8454 12.8451 37.1819C12.8451 37.4635 12.9121 37.7057 13.046 37.9083C13.1834 38.1075 13.3586 38.274 13.5715 38.408C13.7844 38.5385 14.0076 38.6467 14.2412 38.7325C14.4747 38.8149 14.6894 38.8819 14.8851 38.9334L15.9566 39.2219C16.2314 39.294 16.537 39.3936 16.8736 39.5207C17.2136 39.6478 17.5381 39.8212 17.8472 40.041C18.1597 40.2574 18.4173 40.5355 18.6199 40.8755C18.8226 41.2155 18.9239 41.6328 18.9239 42.1273C18.9239 42.6974 18.7745 43.2126 18.4757 43.6728C18.1803 44.133 17.7476 44.4988 17.1775 44.7701C16.6109 45.0414 15.9223 45.177 15.1118 45.177C14.3562 45.177 13.702 45.0551 13.1491 44.8113C12.5996 44.5674 12.1668 44.2274 11.8509 43.7913C11.5384 43.3551 11.3615 42.8486 11.3203 42.2716H12.6391C12.6734 42.67 12.8073 42.9997 13.0409 43.2607C13.2778 43.5182 13.5766 43.7106 13.9372 43.8376C14.3013 43.9613 14.6928 44.0231 15.1118 44.0231C15.5995 44.0231 16.0373 43.9441 16.4254 43.7861C16.8135 43.6247 17.1209 43.4015 17.3475 43.1164C17.5742 42.828 17.6875 42.4914 17.6875 42.1067C17.6875 41.7564 17.5896 41.4714 17.3939 41.2516C17.1981 41.0318 16.9406 40.8532 16.6212 40.7158C16.3018 40.5785 15.9566 40.4583 15.5857 40.3552L14.2875 39.9843C13.4633 39.7474 12.8108 39.4091 12.33 38.9695C11.8492 38.5299 11.6088 37.9546 11.6088 37.2437C11.6088 36.653 11.7685 36.1379 12.0879 35.6983C12.4107 35.2553 12.8434 34.9118 13.386 34.668C13.9321 34.4207 14.5417 34.2971 15.2148 34.2971C15.8948 34.2971 16.4992 34.419 17.0281 34.6628C17.557 34.9032 17.976 35.2329 18.2851 35.6519C18.5976 36.0709 18.7625 36.5466 18.7796 37.0789H17.5433Z" fill="#AF9546"/>
<path d="M24.1771 45.1564C23.4147 45.1564 22.757 44.9881 22.2041 44.6516C21.6546 44.3116 21.2305 43.8376 20.9317 43.2298C20.6363 42.6185 20.4886 41.9075 20.4886 41.097C20.4886 40.2865 20.6363 39.5722 20.9317 38.954C21.2305 38.3324 21.646 37.8482 22.1783 37.5013C22.7141 37.151 23.3391 36.9759 24.0535 36.9759C24.4656 36.9759 24.8726 37.0445 25.2744 37.1819C25.6762 37.3193 26.042 37.5425 26.3716 37.8516C26.7013 38.1573 26.9641 38.5625 27.1598 39.0674C27.3556 39.5722 27.4535 40.1938 27.4535 40.9322V41.4474H21.3541V40.3964H26.2171C26.2171 39.95 26.1278 39.5516 25.9492 39.2013C25.7741 38.851 25.5234 38.5745 25.1971 38.3719C24.8743 38.1693 24.4931 38.068 24.0535 38.068C23.5692 38.068 23.1502 38.1882 22.7965 38.4286C22.4462 38.6655 22.1766 38.9746 21.9877 39.3558C21.7988 39.7371 21.7044 40.1457 21.7044 40.5819V41.2825C21.7044 41.8801 21.8074 42.3866 22.0135 42.8022C22.223 43.2143 22.5132 43.5286 22.8841 43.7449C23.255 43.9578 23.686 44.0643 24.1771 44.0643C24.4965 44.0643 24.785 44.0197 25.0426 43.9304C25.3036 43.8376 25.5285 43.7003 25.7174 43.5183C25.9063 43.3328 26.0523 43.1027 26.1553 42.8279L27.3298 43.1576C27.2062 43.556 26.9984 43.9063 26.7065 44.2085C26.4146 44.5073 26.054 44.7409 25.6247 44.9092C25.1954 45.074 24.7129 45.1564 24.1771 45.1564Z" fill="#AF9546"/>
<path d="M30.5186 40.2316V44.9916H29.3028V37.0789H30.4774V38.3152H30.5804C30.7659 37.9134 31.0475 37.5906 31.4253 37.3468C31.803 37.0995 32.2907 36.9759 32.8883 36.9759C33.424 36.9759 33.8928 37.0858 34.2946 37.3056C34.6965 37.5219 35.009 37.8516 35.2322 38.2946C35.4554 38.7342 35.5671 39.2906 35.5671 39.9637V44.9916H34.3513V40.0461C34.3513 39.4245 34.1899 38.9403 33.8671 38.5934C33.5442 38.2431 33.1012 38.068 32.538 38.068C32.1499 38.068 31.803 38.1521 31.4974 38.3204C31.1952 38.4887 30.9565 38.7342 30.7813 39.0571C30.6062 39.3799 30.5186 39.7714 30.5186 40.2316Z" fill="#AF9546"/>
<path d="M43.3935 38.851L42.3013 39.1601C42.2327 38.9781 42.1313 38.8012 41.9974 38.6295C41.8669 38.4543 41.6883 38.3101 41.4617 38.1968C41.235 38.0834 40.9448 38.0268 40.591 38.0268C40.1068 38.0268 39.7033 38.1384 39.3804 38.3616C39.0611 38.5814 38.9014 38.8613 38.9014 39.2013C38.9014 39.5035 39.0113 39.7422 39.2311 39.9174C39.4509 40.0925 39.7943 40.2385 40.2614 40.3552L41.4359 40.6437C42.1434 40.8154 42.6705 41.0782 43.0174 41.4319C43.3643 41.7822 43.5377 42.2338 43.5377 42.7867C43.5377 43.2401 43.4072 43.6453 43.1462 44.0025C42.8886 44.3597 42.528 44.6413 42.0644 44.8473C41.6007 45.0534 41.0616 45.1564 40.4468 45.1564C39.6397 45.1564 38.9718 44.9813 38.4429 44.631C37.914 44.2807 37.5791 43.769 37.4383 43.0958L38.5923 42.8073C38.7022 43.2332 38.9099 43.5526 39.2156 43.7655C39.5247 43.9784 39.9282 44.0849 40.4262 44.0849C40.9929 44.0849 41.4428 43.9647 41.7759 43.7243C42.1125 43.4805 42.2807 43.1886 42.2807 42.8486C42.2807 42.5738 42.1846 42.3437 41.9923 42.1583C41.7999 41.9694 41.5046 41.8286 41.1062 41.7358L39.7874 41.4267C39.0628 41.255 38.5305 40.9889 38.1905 40.6283C37.8539 40.2642 37.6856 39.8092 37.6856 39.2631C37.6856 38.8167 37.811 38.4217 38.0617 38.0783C38.3158 37.7348 38.661 37.4652 39.0971 37.2695C39.5367 37.0737 40.0347 36.9759 40.591 36.9759C41.3741 36.9759 41.9888 37.1476 42.4353 37.491C42.8852 37.8344 43.2046 38.2878 43.3935 38.851Z" fill="#AF9546"/>
<path d="M48.5823 45.1564C47.868 45.1564 47.2412 44.9864 46.702 44.6464C46.1663 44.3064 45.7473 43.8308 45.445 43.2195C45.1463 42.6082 44.9969 41.8938 44.9969 41.0764C44.9969 40.2522 45.1463 39.5327 45.445 38.918C45.7473 38.3032 46.1663 37.8259 46.702 37.4859C47.2412 37.1459 47.868 36.9759 48.5823 36.9759C49.2966 36.9759 49.9217 37.1459 50.4574 37.4859C50.9966 37.8259 51.4156 38.3032 51.7144 38.918C52.0166 39.5327 52.1677 40.2522 52.1677 41.0764C52.1677 41.8938 52.0166 42.6082 51.7144 43.2195C51.4156 43.8308 50.9966 44.3064 50.4574 44.6464C49.9217 44.9864 49.2966 45.1564 48.5823 45.1564ZM48.5823 44.0643C49.1249 44.0643 49.5714 43.9252 49.9217 43.647C50.272 43.3689 50.5313 43.0031 50.6996 42.5498C50.8678 42.0964 50.952 41.6053 50.952 41.0764C50.952 40.5476 50.8678 40.0547 50.6996 39.598C50.5313 39.1412 50.272 38.772 49.9217 38.4904C49.5714 38.2088 49.1249 38.068 48.5823 38.068C48.0397 38.068 47.5932 38.2088 47.2429 38.4904C46.8926 38.772 46.6333 39.1412 46.465 39.598C46.2968 40.0547 46.2126 40.5476 46.2126 41.0764C46.2126 41.6053 46.2968 42.0964 46.465 42.5498C46.6333 43.0031 46.8926 43.3689 47.2429 43.647C47.5932 43.9252 48.0397 44.0643 48.5823 44.0643Z" fill="#AF9546"/>
<path d="M54.0236 44.9916V37.0789H55.1981V38.274H55.2805C55.4248 37.8825 55.6858 37.5648 56.0636 37.321C56.4413 37.0772 56.8672 36.9552 57.3411 36.9552C57.4304 36.9552 57.542 36.957 57.676 36.9604C57.8099 36.9638 57.9112 36.969 57.9799 36.9759V38.2122C57.9387 38.2019 57.8443 38.1865 57.6966 38.1658C57.5523 38.1418 57.3995 38.1298 57.2381 38.1298C56.8535 38.1298 56.51 38.2105 56.2078 38.3719C55.909 38.5299 55.672 38.7497 55.4969 39.0313C55.3252 39.3095 55.2393 39.6272 55.2393 39.9843V44.9916H54.0236Z" fill="#AF9546"/>
<path d="M66.798 37.7383C66.6846 37.3914 66.5352 37.0806 66.3498 36.8059C66.1678 36.5277 65.9497 36.2907 65.6956 36.095C65.4449 35.8992 65.1598 35.7498 64.8404 35.6468C64.521 35.5437 64.1707 35.4922 63.7895 35.4922C63.1645 35.4922 62.5961 35.6536 62.0844 35.9765C61.5726 36.2993 61.1657 36.7749 60.8635 37.4034C60.5612 38.0319 60.4101 38.8029 60.4101 39.7165C60.4101 40.63 60.563 41.401 60.8686 42.0295C61.1743 42.6579 61.5881 43.1336 62.1101 43.4564C62.6321 43.7793 63.2194 43.9407 63.8719 43.9407C64.4764 43.9407 65.0087 43.8119 65.4689 43.5543C65.9325 43.2933 66.2931 42.9258 66.5507 42.4519C66.8117 41.9745 66.9422 41.413 66.9422 40.7674L67.3337 40.8498H64.1604V39.7165H68.1786V40.8498C68.1786 41.7187 67.9931 42.4742 67.6222 43.1164C67.2547 43.7587 66.7465 44.2566 66.0974 44.6104C65.4517 44.9607 64.7099 45.1358 63.8719 45.1358C62.9378 45.1358 62.117 44.916 61.4095 44.4764C60.7055 44.0368 60.156 43.4118 59.761 42.6013C59.3695 41.7908 59.1738 40.8292 59.1738 39.7165C59.1738 38.8819 59.2854 38.1315 59.5086 37.4652C59.7353 36.7956 60.0547 36.2255 60.4668 35.755C60.8789 35.2844 61.3666 34.9238 61.9298 34.6731C62.493 34.4224 63.1129 34.2971 63.7895 34.2971C64.3459 34.2971 64.8645 34.3812 65.3453 34.5495C65.8295 34.7144 66.2605 34.9496 66.6383 35.2553C67.0195 35.5575 67.3372 35.9198 67.5913 36.3422C67.8454 36.7612 68.0206 37.2266 68.1168 37.7383H66.798Z" fill="#AF9546"/>
<path d="M70.4736 34.4413L73.6057 43.3225H73.7293L76.8614 34.4413H78.2008L74.3269 44.9916H73.0081L69.1342 34.4413H70.4736Z" fill="#AF9546"/>
<path d="M80.5102 23.7732C80.3969 23.4264 80.2475 23.1156 80.062 22.8408C79.88 22.5626 79.6619 22.3257 79.4078 22.1299C79.1571 21.9342 78.872 21.7848 78.5526 21.6817C78.2332 21.5787 77.8829 21.5272 77.5017 21.5272C76.8767 21.5272 76.3083 21.6886 75.7966 22.0114C75.2849 22.3343 74.8779 22.8099 74.5757 23.4384C74.2735 24.0669 74.1223 24.8379 74.1223 25.7514C74.1223 26.6649 74.2752 27.436 74.5808 28.0644C74.8865 28.6929 75.3003 29.1686 75.8223 29.4914C76.3444 29.8142 76.9316 29.9756 77.5841 29.9756C78.1886 29.9756 78.7209 29.8468 79.1811 29.5893C79.6447 29.3283 80.0053 28.9608 80.2629 28.4869C80.5239 28.0095 80.6544 27.448 80.6544 26.8023L81.0459 26.8847H77.8726V25.7514H81.8908V26.8847C81.8908 27.7536 81.7053 28.5092 81.3344 29.1514C80.967 29.7936 80.4587 30.2916 79.8096 30.6453C79.1639 30.9956 78.4221 31.1708 77.5841 31.1708C76.65 31.1708 75.8292 30.951 75.1217 30.5114C74.4177 30.0718 73.8682 29.4468 73.4733 28.6363C73.0817 27.8257 72.886 26.8641 72.886 25.7514C72.886 24.9169 72.9976 24.1665 73.2208 23.5002C73.4475 22.8305 73.7669 22.2604 74.179 21.7899C74.5911 21.3194 75.0788 20.9588 75.642 20.7081C76.2053 20.4574 76.8252 20.332 77.5017 20.332C78.0581 20.332 78.5767 20.4162 79.0575 20.5845C79.5417 20.7493 79.9727 20.9846 80.3505 21.2902C80.7317 21.5924 81.0494 21.9548 81.3035 22.3772C81.5577 22.7962 81.7328 23.2615 81.829 23.7732H80.5102Z" fill="#F0C01F"/>
<path d="M87.1286 31.1914C86.4142 31.1914 85.7875 31.0214 85.2483 30.6814C84.7125 30.3414 84.2935 29.8657 83.9913 29.2544C83.6925 28.6431 83.5431 27.9288 83.5431 27.1114C83.5431 26.2872 83.6925 25.5677 83.9913 24.9529C84.2935 24.3382 84.7125 23.8608 85.2483 23.5208C85.7875 23.1808 86.4142 23.0108 87.1286 23.0108C87.8429 23.0108 88.468 23.1808 89.0037 23.5208C89.5429 23.8608 89.9619 24.3382 90.2607 24.9529C90.5629 25.5677 90.714 26.2872 90.714 27.1114C90.714 27.9288 90.5629 28.6431 90.2607 29.2544C89.9619 29.8657 89.5429 30.3414 89.0037 30.6814C88.468 31.0214 87.8429 31.1914 87.1286 31.1914ZM87.1286 30.0993C87.6712 30.0993 88.1177 29.9602 88.468 29.682C88.8183 29.4038 89.0775 29.0381 89.2458 28.5847C89.4141 28.1314 89.4983 27.6403 89.4983 27.1114C89.4983 26.5825 89.4141 26.0897 89.2458 25.6329C89.0775 25.1762 88.8183 24.807 88.468 24.5254C88.1177 24.2437 87.6712 24.1029 87.1286 24.1029C86.5859 24.1029 86.1395 24.2437 85.7892 24.5254C85.4389 24.807 85.1796 25.1762 85.0113 25.6329C84.843 26.0897 84.7589 26.5825 84.7589 27.1114C84.7589 27.6403 84.843 28.1314 85.0113 28.5847C85.1796 29.0381 85.4389 29.4038 85.7892 29.682C86.1395 29.9602 86.5859 30.0993 87.1286 30.0993Z" fill="#F0C01F"/>
<path d="M93.7856 20.4763V31.0265H92.5698V20.4763H93.7856Z" fill="#F0C01F"/>
<path d="M99.0002 31.1914C98.3408 31.1914 97.7587 31.0248 97.2538 30.6917C96.749 30.3551 96.354 29.8812 96.069 29.2699C95.7839 28.6551 95.6414 27.9288 95.6414 27.0908C95.6414 26.2597 95.7839 25.5385 96.069 24.9272C96.354 24.3159 96.7507 23.8436 97.259 23.5105C97.7673 23.1774 98.3545 23.0108 99.0208 23.0108C99.5359 23.0108 99.9429 23.0967 100.242 23.2684C100.544 23.4367 100.774 23.629 100.932 23.8454C101.093 24.0583 101.219 24.2334 101.308 24.3708H101.411V20.4763H102.627V31.0265H101.452V29.8108H101.308C101.219 29.955 101.092 30.137 100.927 30.3568C100.762 30.5732 100.527 30.7672 100.221 30.939C99.9154 31.1072 99.5085 31.1914 99.0002 31.1914ZM99.165 30.0993C99.6527 30.0993 100.065 29.9722 100.401 29.7181C100.738 29.4605 100.994 29.105 101.169 28.6517C101.344 28.1949 101.432 27.6678 101.432 27.0702C101.432 26.4795 101.346 25.9626 101.174 25.5196C101.002 25.0731 100.748 24.7263 100.412 24.479C100.075 24.2283 99.6596 24.1029 99.165 24.1029C98.6499 24.1029 98.2206 24.2352 97.8772 24.4996C97.5372 24.7606 97.2813 25.1161 97.1096 25.566C96.9413 26.0124 96.8572 26.5138 96.8572 27.0702C96.8572 27.6334 96.943 28.1451 97.1147 28.6053C97.2899 29.0621 97.5475 29.4261 97.8875 29.6975C98.2309 29.9653 98.6567 30.0993 99.165 30.0993Z" fill="#F0C01F"/>
<path d="M108.34 31.1914C107.577 31.1914 106.92 31.0231 106.367 30.6865C105.817 30.3465 105.393 29.8726 105.094 29.2647C104.799 28.6534 104.651 27.9425 104.651 27.132C104.651 26.3215 104.799 25.6072 105.094 24.989C105.393 24.3674 105.809 23.8831 106.341 23.5363C106.877 23.186 107.502 23.0108 108.216 23.0108C108.628 23.0108 109.035 23.0795 109.437 23.2169C109.839 23.3543 110.205 23.5775 110.534 23.8866C110.864 24.1922 111.127 24.5975 111.323 25.1023C111.518 25.6072 111.616 26.2288 111.616 26.9672V27.4823H105.517V26.4314H110.38C110.38 25.9849 110.291 25.5866 110.112 25.2363C109.937 24.886 109.686 24.6095 109.36 24.4069C109.037 24.2042 108.656 24.1029 108.216 24.1029C107.732 24.1029 107.313 24.2231 106.959 24.4635C106.609 24.7005 106.339 25.0096 106.15 25.3908C105.962 25.772 105.867 26.1807 105.867 26.6169V27.3175C105.867 27.915 105.97 28.4216 106.176 28.8372C106.386 29.2493 106.676 29.5635 107.047 29.7799C107.418 29.9928 107.849 30.0993 108.34 30.0993C108.659 30.0993 108.948 30.0546 109.205 29.9653C109.466 29.8726 109.691 29.7352 109.88 29.5532C110.069 29.3678 110.215 29.1377 110.318 28.8629L111.493 29.1926C111.369 29.591 111.161 29.9413 110.869 30.2435C110.577 30.5423 110.217 30.7758 109.787 30.9441C109.358 31.109 108.876 31.1914 108.34 31.1914Z" fill="#F0C01F"/>
<path d="M114.681 26.2666V31.0265H113.466V23.1139H114.64V24.3502H114.743C114.929 23.9484 115.21 23.6256 115.588 23.3817C115.966 23.1345 116.453 23.0108 117.051 23.0108C117.587 23.0108 118.056 23.1207 118.457 23.3405C118.859 23.5569 119.172 23.8866 119.395 24.3296C119.618 24.7692 119.73 25.3256 119.73 25.9987V31.0265H118.514V26.0811C118.514 25.4595 118.353 24.9753 118.03 24.6284C117.707 24.2781 117.264 24.1029 116.701 24.1029C116.313 24.1029 115.966 24.1871 115.66 24.3554C115.358 24.5236 115.119 24.7692 114.944 25.092C114.769 25.4148 114.681 25.8064 114.681 26.2666Z" fill="#F0C01F"/>
<path d="M76.6968 34.3162L79.8289 43.1974H79.9525L83.0846 34.3162H84.424L80.5501 44.8664H79.2313L75.3574 34.3162H76.6968Z" fill="#F0C01F"/>
<path d="M85.8229 44.8664V37.5197H86.9517V44.8664H85.8229ZM86.3969 36.2952C86.1769 36.2952 85.9871 36.2203 85.8277 36.0704C85.6714 35.9206 85.5933 35.7404 85.5933 35.53C85.5933 35.3195 85.6714 35.1393 85.8277 34.9895C85.9871 34.8396 86.1769 34.7647 86.3969 34.7647C86.6169 34.7647 86.805 34.8396 86.9613 34.9895C87.1207 35.1393 87.2004 35.3195 87.2004 35.53C87.2004 35.7404 87.1207 35.9206 86.9613 36.0704C86.805 36.2203 86.6169 36.2952 86.3969 36.2952Z" fill="#F0C01F"/>
<path d="M94.2231 39.1651L93.2091 39.452C93.1453 39.283 93.0513 39.1188 92.9269 38.9594C92.8057 38.7968 92.6399 38.6628 92.4295 38.5576C92.219 38.4524 91.9496 38.3998 91.6211 38.3998C91.1715 38.3998 90.7969 38.5034 90.4971 38.7107C90.2006 38.9148 90.0523 39.1746 90.0523 39.4903C90.0523 39.7709 90.1543 39.9925 90.3584 40.1552C90.5625 40.3178 90.8814 40.4533 91.315 40.5617L92.4056 40.8296C93.0624 40.989 93.5519 41.2329 93.874 41.5614C94.196 41.8866 94.357 42.3059 94.357 42.8193C94.357 43.2402 94.2359 43.6165 93.9935 43.9481C93.7544 44.2797 93.4196 44.5412 92.9891 44.7325C92.5586 44.9238 92.058 45.0195 91.4872 45.0195C90.7379 45.0195 90.1177 44.8569 89.6266 44.5316C89.1356 44.2064 88.8247 43.7313 88.6939 43.1063L89.7653 42.8384C89.8674 43.2338 90.0603 43.5304 90.3441 43.7281C90.6311 43.9258 91.0057 44.0246 91.4681 44.0246C91.9942 44.0246 92.4119 43.913 92.7212 43.6898C93.0337 43.4634 93.19 43.1924 93.19 42.8767C93.19 42.6216 93.1007 42.408 92.9221 42.2358C92.7436 42.0604 92.4693 41.9297 92.0995 41.8436L90.875 41.5566C90.2022 41.3971 89.7079 41.15 89.3923 40.8152C89.0798 40.4772 88.9235 40.0547 88.9235 39.5477C88.9235 39.1332 89.0399 38.7665 89.2727 38.4476C89.5086 38.1287 89.8291 37.8784 90.2341 37.6967C90.6422 37.5149 91.1046 37.424 91.6211 37.424C92.3482 37.424 92.9189 37.5835 93.3335 37.9023C93.7512 38.2212 94.0477 38.6421 94.2231 39.1651Z" fill="#F0C01F"/>
<path d="M96.0562 44.8664V37.5197H97.185V44.8664H96.0562ZM96.6302 36.2952C96.4102 36.2952 96.2204 36.2203 96.061 36.0704C95.9048 35.9206 95.8266 35.7404 95.8266 35.53C95.8266 35.3195 95.9048 35.1393 96.061 34.9895C96.2204 34.8396 96.4102 34.7647 96.6302 34.7647C96.8502 34.7647 97.0383 34.8396 97.1946 34.9895C97.354 35.1393 97.4337 35.3195 97.4337 35.53C97.4337 35.7404 97.354 35.9206 97.1946 36.0704C97.0383 36.2203 96.8502 36.2952 96.6302 36.2952Z" fill="#F0C01F"/>
<path d="M102.237 45.0195C101.574 45.0195 100.992 44.8617 100.491 44.546C99.9939 44.2303 99.6048 43.7887 99.3242 43.2211C99.0468 42.6535 98.9081 41.9902 98.9081 41.2313C98.9081 40.4661 99.0468 39.798 99.3242 39.2272C99.6048 38.6565 99.9939 38.2132 100.491 37.8976C100.992 37.5819 101.574 37.424 102.237 37.424C102.9 37.424 103.481 37.5819 103.978 37.8976C104.479 38.2132 104.868 38.6565 105.145 39.2272C105.426 39.798 105.566 40.4661 105.566 41.2313C105.566 41.9902 105.426 42.6535 105.145 43.2211C104.868 43.7887 104.479 44.2303 103.978 44.546C103.481 44.8617 102.9 45.0195 102.237 45.0195ZM102.237 44.0055C102.741 44.0055 103.155 43.8764 103.481 43.6181C103.806 43.3598 104.047 43.0202 104.203 42.5993C104.359 42.1784 104.437 41.7224 104.437 41.2313C104.437 40.7403 104.359 40.2827 104.203 39.8586C104.047 39.4345 103.806 39.0917 103.481 38.8303C103.155 38.5688 102.741 38.438 102.237 38.438C101.733 38.438 101.319 38.5688 100.994 38.8303C100.668 39.0917 100.428 39.4345 100.271 39.8586C100.115 40.2827 100.037 40.7403 100.037 41.2313C100.037 41.7224 100.115 42.1784 100.271 42.5993C100.428 43.0202 100.668 43.3598 100.994 43.6181C101.319 43.8764 101.733 44.0055 102.237 44.0055Z" fill="#F0C01F"/>
<path d="M108.418 40.4469V44.8664H107.289V37.5197H108.38V38.6676H108.475C108.648 38.2946 108.909 37.9948 109.26 37.7684C109.611 37.5388 110.063 37.424 110.618 37.424C111.116 37.424 111.551 37.5261 111.924 37.7302C112.297 37.931 112.587 38.2372 112.794 38.6485C113.002 39.0566 113.105 39.5732 113.105 40.1982V44.8664H111.977V40.2747C111.977 39.6976 111.827 39.248 111.527 38.9259C111.227 38.6007 110.816 38.438 110.293 38.438C109.933 38.438 109.611 38.5162 109.327 38.6724C109.046 38.8287 108.825 39.0566 108.662 39.3564C108.499 39.6561 108.418 40.0196 108.418 40.4469Z" fill="#F0C01F"/>
<path d="M54.7699 7.29262L56.4433 9.91288C58.4643 13.0782 59.2619 17.0041 58.3822 21.0603C56.4954 29.7547 47.6176 35.7558 38.5524 34.4632C33.7157 33.7738 29.8018 31.1475 27.4902 27.5272L25.8168 24.909C28.1284 28.5303 32.0423 31.1565 36.879 31.8459C45.9442 33.1375 54.823 27.1365 56.7088 18.442C57.5886 14.3879 56.791 10.458 54.7699 7.29262Z" fill="black"/>
<path d="M54.7699 7.29262L56.4433 9.91288C56.6758 10.2769 56.8915 10.6504 57.0906 11.0331L55.4172 8.41286C55.2168 8.0301 55.0011 7.65668 54.7699 7.29262Z" fill="#246371"/>
<path d="M55.4172 8.41286L57.0906 11.0331C57.757 12.3116 58.2298 13.6819 58.4934 15.0993L56.82 12.478C56.5567 11.0609 56.0839 9.69083 55.4172 8.41286Z" fill="#266675"/>
<path d="M56.817 12.478L58.4904 15.0993C58.6682 16.0594 58.7501 17.0348 58.7349 18.0111L57.0615 15.3899C57.0767 14.4136 56.9948 13.4381 56.817 12.478Z" fill="#276978"/>
<path d="M57.0615 15.3899L58.7349 18.0111C58.7184 19.0367 58.6003 20.058 58.3822 21.0603C58.2853 21.5065 58.1704 21.9454 58.0375 22.3769L56.3641 19.7566C56.4977 19.3251 56.6126 18.8859 56.7088 18.439C56.9269 17.4368 57.0451 16.4154 57.0615 15.3899Z" fill="#266675"/>
<path d="M56.3641 19.7566L58.0375 22.3769C57.7907 23.1766 57.4829 23.9561 57.1166 24.7086L55.4473 22.0893C55.8134 21.3364 56.1212 20.5566 56.3681 19.7566" fill="#246371"/>
<path d="M55.4473 22.0893L57.1166 24.7086C56.8047 25.3491 56.4519 25.969 56.0605 26.5643L54.3872 23.944C54.7796 23.349 55.1337 22.7295 55.4473 22.0893Z" fill="#235F6E"/>
<path d="M54.3872 23.945L56.0605 26.5653C55.687 27.1348 55.2794 27.6812 54.8401 28.2016L53.1677 25.5813C53.606 25.0603 54.0132 24.5139 54.3872 23.945Z" fill="#225C6A"/>
<path d="M53.1677 25.5813L54.8401 28.2016C54.3936 28.7327 53.9158 29.2366 53.4092 29.7106L51.7398 27.0904C52.2463 26.6158 52.7244 26.112 53.1717 25.5813" fill="#215967"/>
<path d="M51.7398 27.0904L53.4132 29.7106C52.8593 30.2301 52.2733 30.7144 51.6587 31.1605L49.9853 28.5393C50.5999 28.0935 51.1859 27.6096 51.7398 27.0904Z" fill="#205663"/>
<path d="M49.9813 28.5393L51.6547 31.1605C50.9084 31.7009 50.1226 32.1846 49.304 32.6074L47.6316 29.9872C48.4505 29.5644 49.2363 29.0804 49.9823 28.5393" fill="#1F5360"/>
<path d="M47.6316 29.9872L49.305 32.6074C46.001 34.3283 42.243 34.9769 38.5534 34.4632C33.7167 33.7738 29.8028 31.1475 27.4912 27.5272L25.8168 24.909C28.1284 28.5303 32.0423 31.1565 36.879 31.8459C40.5693 32.3581 44.3274 31.7085 47.6316 29.9872Z" fill="#1E505C"/>
<path d="M46.6624 30.4476C55.2281 26.6465 59.3207 17.1399 55.8035 9.21413C52.2863 1.28833 42.4912 -2.05536 33.9255 1.74579C25.3598 5.54694 21.2672 15.0535 24.7844 22.9793C28.3016 30.9051 38.0967 34.2488 46.6624 30.4476Z" fill="#318498"/>
<path d="M36.4091 7.03309L37.3449 8.38781C37.3912 8.47436 37.4104 8.5728 37.4 8.67038L36.4632 7.31566C36.4739 7.21818 36.4551 7.11971 36.4091 7.03309Z" fill="black"/>
<path d="M36.4091 7.03309L37.3449 8.38781C37.3591 8.41029 37.3702 8.43455 37.378 8.45996L36.4421 7.10424C36.4345 7.07907 36.4234 7.05512 36.4091 7.03309Z" fill="#534621"/>
<path d="M36.4421 7.10424L37.378 8.45996C37.3965 8.52848 37.404 8.59951 37.4 8.67038L36.4632 7.31566C36.4673 7.24452 36.4602 7.17317 36.4421 7.10424Z" fill="#564A23"/>
<path d="M35.4451 8.34874L36.382 9.70446C36.2808 9.55911 36.1689 9.42145 36.0473 9.29263C35.6726 8.89182 35.2718 8.66905 34.8449 8.62429C34.6509 8.59917 34.4539 8.61264 34.2652 8.66394C34.0764 8.71524 33.8997 8.80334 33.7451 8.92319C33.5905 9.04304 33.4611 9.19226 33.3644 9.36228C33.2677 9.5323 33.2056 9.71976 33.1816 9.91388C33.1361 10.2325 33.2174 10.5563 33.408 10.8157L32.4711 9.45997C32.2807 9.20054 32.1997 8.87669 32.2457 8.55816C32.2954 8.16798 32.498 7.81351 32.809 7.57264C33.1199 7.33177 33.5138 7.22421 33.904 7.27358C34.3336 7.321 34.7344 7.54412 35.1064 7.94292C35.2292 8.06963 35.3424 8.20527 35.4451 8.34874Z" fill="black"/>
<path d="M35.4451 8.34874L36.382 9.70446C36.2808 9.55911 36.1689 9.42145 36.0473 9.29263C35.6726 8.89182 35.2718 8.66905 34.8449 8.62429C34.5718 8.58989 34.2946 8.63113 34.0433 8.74353L33.1024 7.38881C33.3536 7.27607 33.6309 7.23448 33.904 7.26857C34.3336 7.316 34.7344 7.53911 35.1064 7.93791C35.2277 8.0664 35.3392 8.20372 35.4401 8.34874" fill="#534621"/>
<path d="M33.1024 7.38881L34.0383 8.74353C33.934 8.792 33.8355 8.85217 33.7447 8.92289C33.5892 9.04201 33.4592 9.19108 33.3623 9.36128C33.2654 9.53149 33.2036 9.71939 33.1806 9.91388C33.1541 10.088 33.1675 10.2658 33.2196 10.4339L32.2808 9.0772C32.2287 8.90902 32.2153 8.73123 32.2417 8.55715C32.2646 8.36247 32.3263 8.17436 32.4232 8.00397C32.5201 7.83357 32.6502 7.68436 32.8058 7.56516C32.8966 7.49475 32.9951 7.43491 33.0994 7.3868" fill="#564A23"/>
<path d="M32.2808 9.0772L33.2166 10.4319C33.2588 10.5676 33.322 10.6957 33.404 10.8117L32.4671 9.45596C32.3856 9.3402 32.3227 9.2124 32.2808 9.0772Z" fill="#534621"/>
<path d="M36.4632 7.31566L37.4 8.67038L37.3329 10.7265L36.397 9.37179L36.4632 7.31566Z" fill="#584B23"/>
<path d="M36.397 9.37179L37.3329 10.7265L37.3239 10.974L36.388 9.61929L36.397 9.37179Z" fill="#584B23"/>
<path d="M36.9481 11.0692L36.0082 9.71448C36.0291 9.74034 36.0553 9.76136 36.085 9.77607C36.1148 9.79078 36.1474 9.79883 36.1806 9.79965C36.2978 9.81267 36.364 9.75255 36.381 9.61929L37.3169 10.974C37.2978 11.1073 37.2307 11.1674 37.1165 11.1544C37.0839 11.1532 37.052 11.1449 37.023 11.1302C36.9939 11.1155 36.9684 11.0947 36.9481 11.0692Z" fill="black"/>
<path d="M36.388 9.61929L37.3239 10.974C37.3228 11.0081 37.3131 11.0414 37.2955 11.0707C37.278 11.1 37.2533 11.1243 37.2237 11.1413L36.2868 9.78662C36.3164 9.76957 36.3411 9.74525 36.3586 9.71597C36.3762 9.68668 36.3859 9.6534 36.387 9.61929" fill="#564A23"/>
<path d="M36.2878 9.78662L37.2247 11.1413C37.193 11.1545 37.1585 11.159 37.1245 11.1544C37.0913 11.1538 37.0586 11.1458 37.0288 11.1311C36.999 11.1163 36.9728 11.0952 36.9521 11.0692L36.0082 9.71448C36.0291 9.74034 36.0553 9.76136 36.085 9.77607C36.1148 9.79078 36.1474 9.79883 36.1806 9.79965C36.2146 9.80393 36.2491 9.79945 36.2808 9.78662" fill="#534621"/>
<path d="M30.384 13.1353L31.3198 14.4881C31.3781 14.5883 31.4162 14.6989 31.4321 14.8137C31.5601 15.5106 31.8288 16.174 32.2216 16.7636L31.2858 15.4089C30.8936 14.8201 30.6253 14.1577 30.4972 13.462C30.4809 13.3468 30.4424 13.2359 30.384 13.1353Z" fill="black"/>
<path d="M30.384 13.1353L31.3198 14.4881C31.3525 14.5388 31.3771 14.5942 31.393 14.6524L30.4571 13.2977C30.441 13.2393 30.4163 13.1836 30.384 13.1323" fill="#534621"/>
<path d="M30.4571 13.3007L31.393 14.6554C31.4089 14.7084 31.422 14.7623 31.4321 14.8167C31.4748 15.0271 31.5259 15.2295 31.5854 15.4239L30.6495 14.0682C30.5907 13.8745 30.5396 13.6724 30.4962 13.462C30.4842 13.4009 30.4711 13.3468 30.4571 13.3007Z" fill="#564A23"/>
<path d="M30.6495 14.0682L31.5854 15.4239C31.7272 15.9015 31.9418 16.3544 32.2216 16.7666L31.2858 15.4119C31.0059 14.9993 30.7913 14.5461 30.6495 14.0682Z" fill="#534621"/>
<path d="M30.8228 17.9139L29.887 16.5592C29.8963 16.5739 29.9088 16.5862 29.9235 16.5954C29.9383 16.6046 29.9549 16.6104 29.9721 16.6123C30.075 16.6237 30.1752 16.5318 30.2727 16.3368C30.3444 16.1823 30.4397 16.0399 30.5553 15.9149L31.4922 17.2706C31.3759 17.395 31.2802 17.537 31.2086 17.6915C31.1084 17.8859 31.0082 17.9791 30.908 17.967C30.8907 17.9652 30.8741 17.9594 30.8593 17.9502C30.8446 17.9411 30.8321 17.9286 30.8228 17.9139Z" fill="black"/>
<path d="M30.5563 15.9149L31.4932 17.2706C31.3769 17.395 31.2812 17.537 31.2096 17.6915C31.1678 17.7993 31.0922 17.8907 30.9942 17.952L30.0583 16.5973C30.1559 16.5354 30.2313 16.4442 30.2737 16.3368C30.3454 16.1823 30.4407 16.0399 30.5563 15.9149Z" fill="#564A23"/>
<path d="M30.0583 16.5973L30.9982 17.952C30.9714 17.9648 30.9416 17.97 30.912 17.967C30.8947 17.9652 30.8781 17.9594 30.8633 17.9502C30.8486 17.9411 30.8361 17.9286 30.8268 17.9139L29.891 16.5592C29.9003 16.5739 29.9128 16.5862 29.9275 16.5954C29.9423 16.6046 29.9589 16.6104 29.9761 16.6123C30.0057 16.6153 30.0355 16.6101 30.0623 16.5973" fill="#534621"/>
<path d="M34.4521 13.7125L35.388 15.0672L35.3609 15.0291C35.1165 14.6951 34.6405 14.3491 33.9331 13.9911C33.2457 13.6404 32.7447 13.3217 32.4301 13.0351C32.2941 12.9129 32.173 12.775 32.0693 12.6243L31.1325 11.2696C31.2344 11.421 31.3542 11.5596 31.4892 11.6824C31.8078 11.9697 32.3105 12.2886 32.9972 12.6393C33.7046 12.9981 34.1802 13.3438 34.4241 13.6764L34.4521 13.7125Z" fill="black"/>
<path d="M34.4521 13.7125L35.388 15.0672L35.3609 15.0291C35.1165 14.6951 34.6405 14.3491 33.9331 13.9911C33.2457 13.6404 32.7447 13.3217 32.4301 13.0351C32.2941 12.9129 32.173 12.775 32.0693 12.6243L31.1325 11.2696C31.2344 11.421 31.3542 11.5596 31.4892 11.6824C31.8078 11.9697 32.3105 12.2886 32.9972 12.6393C33.7046 12.9981 34.1802 13.3438 34.4241 13.6764L34.4521 13.7155" fill="#534621"/>
<path d="M35.908 11.8908L36.8449 13.2466C36.8851 13.3047 36.9222 13.3649 36.9562 13.4269C37.1636 13.802 37.2883 14.2171 37.3219 14.6444C37.3397 14.876 37.3317 15.1089 37.2978 15.3388C37.1983 16.0302 36.9668 16.5946 36.6034 17.0322C36.4731 17.1889 36.3318 17.3362 36.1806 17.4731C35.9398 17.6922 35.6701 17.8773 35.379 18.0232C34.9281 18.2476 34.3803 18.3244 33.7357 18.2536C33.3549 18.2081 32.9833 18.1051 32.6335 17.948C32.2311 17.7669 31.8511 17.5396 31.5012 17.2706L30.5643 15.9149C30.912 16.1834 31.2896 16.4107 31.6896 16.5923C32.0411 16.7486 32.4145 16.85 32.7968 16.8929C33.4408 16.9637 33.9882 16.8869 34.4391 16.6624C34.7305 16.5175 35.0003 16.3327 35.2407 16.1133C35.3916 15.9761 35.5325 15.8285 35.6626 15.6714C36.026 15.2346 36.2574 14.6704 36.3569 13.979C36.3911 13.7489 36.3995 13.5157 36.382 13.2836C36.3483 12.8567 36.2236 12.4419 36.0163 12.0672C35.9835 12.0064 35.9474 11.9476 35.908 11.8908Z" fill="black"/>
<path d="M35.908 11.8908L36.8449 13.2466C36.8851 13.3047 36.9222 13.3649 36.9562 13.4269C37.0571 13.6117 37.1393 13.806 37.2016 14.0071L36.2658 12.6524C36.2034 12.4513 36.1212 12.257 36.0203 12.0722C35.9864 12.0097 35.9489 11.9491 35.908 11.8908Z" fill="#534621"/>
<path d="M36.2608 12.6524L37.1966 14.0071C37.2602 14.2144 37.3006 14.4281 37.3169 14.6444C37.3347 14.876 37.3267 15.1089 37.2928 15.3388C37.1933 16.0302 36.9618 16.5946 36.5984 17.0322C36.4681 17.1889 36.3267 17.3362 36.1756 17.4731C35.9348 17.6922 35.6651 17.8773 35.374 18.0232L35.3099 18.0532L34.374 16.6985L34.4371 16.6674C34.7285 16.5225 34.9983 16.3377 35.2387 16.1183C35.3896 15.9812 35.5305 15.8335 35.6606 15.6764C36.024 15.2396 36.2554 14.6754 36.3549 13.984C36.3891 13.7539 36.3975 13.5207 36.38 13.2887C36.3631 13.0728 36.3228 12.8595 36.2598 12.6524" fill="#564A23"/>
<path d="M34.376 16.6985L35.3119 18.0532C34.8736 18.2536 34.3472 18.3204 33.7327 18.2536C33.3519 18.2081 32.9803 18.1051 32.6305 17.948C32.2281 17.7669 31.8481 17.5396 31.4982 17.2706L30.5613 15.9149C30.9099 16.1836 31.2885 16.4109 31.6896 16.5923C32.0411 16.7486 32.4145 16.85 32.7968 16.8929C33.412 16.9597 33.9384 16.8929 34.376 16.6925" fill="#534621"/>
<path d="M36.2978 6.96596C36.4131 6.97898 36.4692 7.09522 36.4632 7.31566L36.397 9.37179L36.388 9.61929C36.368 9.75255 36.3018 9.81267 36.1876 9.79965C36.1533 9.79911 36.1195 9.7907 36.0889 9.77506C36.0584 9.75943 36.0318 9.73699 36.0113 9.70947C35.9445 9.55421 35.8932 9.39278 35.8579 9.2275C35.723 8.74173 35.4672 8.29806 35.1145 7.93791C34.7397 7.53711 34.3389 7.31399 33.912 7.26857C33.718 7.24345 33.5209 7.25697 33.3321 7.30833C33.1433 7.35969 32.9665 7.44788 32.8119 7.56783C32.6573 7.68777 32.5279 7.83712 32.4313 8.00725C32.3346 8.17738 32.2726 8.36495 32.2487 8.55916C32.2256 8.72534 32.2364 8.89449 32.2805 9.05637C32.3246 9.21826 32.401 9.36953 32.5052 9.50105C32.7243 9.79631 33.1842 10.1029 33.885 10.4209C34.9812 10.9239 35.6936 11.4743 36.0223 12.0722C36.2268 12.4466 36.3491 12.8603 36.381 13.2856C36.3985 13.5177 36.3901 13.7509 36.3559 13.981C36.2564 14.6724 36.0249 15.2366 35.6616 15.6734C35.5315 15.8305 35.3906 15.9781 35.2397 16.1153C34.9993 16.3347 34.7295 16.5195 34.4381 16.6644C33.9879 16.8902 33.4404 16.967 32.7958 16.8949C32.4135 16.852 32.0401 16.7506 31.6886 16.5943C31.2857 16.413 30.9054 16.1853 30.5553 15.9159C30.4397 16.041 30.3444 16.1833 30.2727 16.3378C30.1745 16.5322 30.0743 16.624 29.9721 16.6133C29.8639 16.6013 29.8198 16.46 29.8359 16.1915L30.0363 13.48C30.0443 13.3608 30.0513 13.2856 30.0553 13.2556C30.0753 13.1133 30.1505 13.0482 30.2798 13.0622C30.3739 13.0736 30.4461 13.2072 30.4962 13.463C30.6249 14.1678 30.8978 14.8385 31.2978 15.433C31.6739 15.976 32.1602 16.2803 32.7567 16.3458C32.9887 16.379 33.2252 16.3618 33.45 16.2954C33.6748 16.229 33.8826 16.115 34.0593 15.961C34.4048 15.6775 34.6318 15.2751 34.6956 14.8328C34.7307 14.6313 34.7247 14.4248 34.6778 14.2257C34.631 14.0266 34.5443 13.8391 34.4231 13.6744C34.1792 13.3404 33.7036 12.9947 32.9962 12.6373C32.3088 12.286 31.8061 11.967 31.4882 11.6804C31.1595 11.3788 30.9174 10.9948 30.7868 10.5682C30.6382 10.1347 30.5936 9.67238 30.6565 9.21848C30.7517 8.47222 31.1346 7.79265 31.7236 7.32468C32.3249 6.83837 33.0734 6.64398 33.9692 6.74151C34.4548 6.79428 35.0777 7.03109 35.8379 7.45193C35.9206 7.37097 35.9911 7.2785 36.0473 7.17738C36.1315 7.02708 36.2167 6.95794 36.2978 6.96596Z" fill="#AB9244"/>
<path d="M39.6155 14.4189C39.0781 15.1229 38.7018 15.9363 38.5133 16.8017L37.5774 15.446C37.7662 14.581 38.1424 13.768 38.6796 13.0642C39.3242 12.2365 40.1065 11.8731 41.0263 11.974C41.7241 12.0436 42.3656 12.3874 42.8099 12.9299C42.9068 13.0438 42.9978 13.1625 43.0824 13.2856L44.0243 14.6424C43.9393 14.5183 43.8476 14.3989 43.7498 14.2847C43.3054 13.7423 42.6639 13.3985 41.9662 13.3287C41.0444 13.2279 40.2608 13.5913 39.6155 14.4189Z" fill="black"/>
<path d="M43.0824 13.2856L44.0243 14.6424C43.9393 14.5183 43.8476 14.3989 43.7498 14.2847C43.3054 13.7423 42.6639 13.3985 41.9662 13.3287C41.5344 13.2749 41.0961 13.3415 40.6997 13.5211L39.7638 12.1664C40.1602 11.9868 40.5985 11.9202 41.0303 11.974C41.7281 12.0436 42.3696 12.3874 42.8139 12.9299C42.9094 13.0438 42.9991 13.1626 43.0824 13.2856Z" fill="#534621"/>
<path d="M39.7588 12.1664L40.6947 13.5211C40.267 13.7301 39.8964 14.0395 39.6145 14.4229C38.9699 15.2513 38.561 16.2686 38.388 17.4751C38.2371 18.5265 38.2828 19.4484 38.5253 20.2406L37.5894 18.8849C37.3469 18.0933 37.3012 17.1714 37.4521 16.1193C37.6245 14.9169 38.0333 13.8999 38.6786 13.0682C38.9603 12.6845 39.331 12.3751 39.7588 12.1664Z" fill="#564A23"/>
<path d="M45.3149 13.6073C45.366 13.6804 45.3851 13.8257 45.372 14.0412L44.4352 12.6844C44.4482 12.468 44.4292 12.3237 44.3791 12.2496L45.3149 13.6073Z" fill="black"/>
<path d="M44.3791 12.2516L45.3149 13.6073C45.3296 13.6298 45.3408 13.6545 45.348 13.6804L44.4121 12.3247C44.4045 12.2989 44.3934 12.2743 44.3791 12.2516Z" fill="#534621"/>
<path d="M44.4121 12.3247L45.348 13.6804C45.376 13.7985 45.3841 13.9204 45.372 14.0412L44.4352 12.6844C44.4479 12.5634 44.4401 12.4411 44.4121 12.3227" fill="#564A23"/>
<path d="M44.4352 12.6854L45.372 14.0412L45.2488 16.2115L44.3129 14.8558L44.4352 12.6854Z" fill="#584B23"/>
<path d="M45.0264 16.6604C44.995 16.6564 44.965 16.6453 44.9386 16.628C44.9122 16.6106 44.8901 16.5874 44.874 16.5602L43.9382 15.2045C43.9545 15.2315 43.9766 15.2545 44.003 15.2719C44.0293 15.2892 44.0592 15.3004 44.0905 15.3047C44.2057 15.3167 44.2738 15.2476 44.2909 15.0943C44.2999 15.0342 44.3069 14.955 44.3119 14.8548L45.2478 16.2105C45.2428 16.3107 45.2358 16.3899 45.2278 16.449C45.2067 16.6033 45.1376 16.6734 45.0264 16.6604Z" fill="black"/>
<path d="M44.3129 14.8558L45.2488 16.2115C45.2438 16.3117 45.2368 16.3909 45.2288 16.45C45.2289 16.4901 45.2188 16.5296 45.1993 16.5647C45.1798 16.5998 45.1517 16.6293 45.1175 16.6504L44.1817 15.2897C44.2157 15.2685 44.2437 15.239 44.263 15.2039C44.2823 15.1688 44.2922 15.1293 44.2919 15.0893C44.3009 15.0291 44.3079 14.95 44.3129 14.8498" fill="#564A23"/>
<path d="M44.1817 15.2897L45.1175 16.6454C45.0874 16.6578 45.0546 16.662 45.0223 16.6574C44.991 16.6534 44.961 16.6423 44.9346 16.6249C44.9082 16.6076 44.8861 16.5844 44.87 16.5572L43.9342 15.2015C43.9505 15.2285 43.9726 15.2515 43.999 15.2689C44.0253 15.2862 44.0552 15.2974 44.0865 15.3017C44.1204 15.3074 44.1553 15.3029 44.1867 15.2887" fill="#534621"/>
<path d="M41.6095 18.4701L40.6726 17.1153C40.7186 17.17 40.7832 17.2057 40.854 17.2155C41.0374 17.2593 41.2181 17.3138 41.3951 17.3789L42.3309 18.7346C42.1544 18.6692 41.9741 18.6146 41.7909 18.5713C41.72 18.5609 41.6555 18.5249 41.6095 18.4701Z" fill="black"/>
<path d="M41.3951 17.3809L42.3309 18.7366C42.1544 18.6712 41.9741 18.6166 41.7909 18.5733C41.7202 18.5632 41.6556 18.5275 41.6095 18.4731L40.6726 17.1183C40.7186 17.173 40.7832 17.2087 40.854 17.2185C41.0374 17.2623 41.2181 17.3168 41.3951 17.3819" fill="#534621"/>
<path d="M42.5965 18.5963C42.4512 18.5803 42.363 18.6284 42.3309 18.7396L41.3951 17.3839C41.4271 17.2726 41.5153 17.2256 41.6606 17.2416L42.5965 18.5963Z" fill="black"/>
<path d="M41.6606 17.2386L42.5965 18.5963C42.541 18.5877 42.4842 18.5943 42.4321 18.6153L41.4963 17.2596C41.5485 17.2394 41.6052 17.2331 41.6606 17.2416" fill="#534621"/>
<path d="M41.4963 17.2566L42.4321 18.6123C42.4072 18.6242 42.3852 18.6415 42.3678 18.663C42.3505 18.6845 42.3382 18.7097 42.3319 18.7366L41.3961 17.3809C41.4025 17.354 41.4148 17.3289 41.4321 17.3074C41.4494 17.2859 41.4714 17.2686 41.4963 17.2566Z" fill="#564A23"/>
<path d="M42.346 18.926L41.4101 17.5702C41.4287 17.5933 41.452 17.6122 41.4784 17.6257C41.5048 17.6392 41.5338 17.6469 41.5634 17.6484L42.4993 19.0041C42.4698 19.0022 42.4409 18.9943 42.4146 18.9809C42.3882 18.9674 42.3649 18.9487 42.346 18.926Z" fill="black"/>
<path d="M41.5634 17.6484L42.4993 19.0041C42.4698 19.0022 42.4409 18.9943 42.4146 18.9809C42.3882 18.9674 42.3649 18.9487 42.346 18.926L41.4101 17.5702C41.4287 17.5933 41.452 17.6122 41.4784 17.6257C41.5048 17.6392 41.5338 17.6469 41.5634 17.6484Z" fill="#534621"/>
<path d="M38.7738 20.8679C38.861 21.0459 38.9614 21.217 39.0744 21.3799L38.1375 20.0252C38.0249 19.8617 37.9245 19.6903 37.8369 19.5121C37.3867 18.5916 37.2581 17.4594 37.4511 16.1153C37.4845 15.8855 37.526 15.6624 37.5754 15.446L38.5133 16.8017C38.4632 17.0181 38.4221 17.2406 38.389 17.471C38.1953 18.8151 38.3236 19.9474 38.7738 20.8679Z" fill="black"/>
<path d="M39.7588 12.1664L40.6947 13.5211C40.267 13.7301 39.8964 14.0395 39.6145 14.4229C38.9699 15.2513 38.561 16.2686 38.388 17.4751C38.2371 18.5265 38.2828 19.4484 38.5253 20.2406L37.5894 18.8849C37.3469 18.0933 37.3012 17.1714 37.4521 16.1193C37.6245 14.9169 38.0333 13.8999 38.6786 13.0682C38.9603 12.6845 39.331 12.3751 39.7588 12.1664Z" fill="#564A23"/>
<path d="M37.5894 18.8809L38.5253 20.2366C38.5916 20.4532 38.6747 20.6642 38.7738 20.8679C38.861 21.0459 38.9614 21.217 39.0744 21.3799L38.1375 20.0252C38.0249 19.8617 37.9245 19.6903 37.8369 19.5121C37.7374 19.3087 37.6543 19.0976 37.5884 18.8809" fill="#534621"/>
<path d="M42.1496 17.9741L43.0865 19.3298C43.0514 19.2774 43.0096 19.2299 42.9622 19.1885C42.8939 19.1356 42.8169 19.095 42.7348 19.0683C42.658 19.041 42.5793 19.0195 42.4993 19.0041L41.5634 17.6484C41.6431 17.6649 41.7218 17.6863 41.7989 17.7125C41.8807 17.7392 41.9574 17.7799 42.0253 17.8328C42.073 17.8739 42.1149 17.9215 42.1496 17.9741Z" fill="black"/>
<path d="M42.1496 17.9741L43.0865 19.3298C43.0514 19.2774 43.0096 19.2299 42.9622 19.1885C42.8939 19.1356 42.8169 19.095 42.7348 19.0683C42.658 19.041 42.5793 19.0195 42.4993 19.0041L41.5634 17.6484C41.6431 17.6649 41.7218 17.6863 41.7989 17.7125C41.8807 17.7392 41.9574 17.7799 42.0253 17.8328C42.073 17.8739 42.1149 17.9215 42.1496 17.9741Z" fill="#534621"/>
<path d="M43.3891 17.5021L44.3249 18.8578L42.5965 18.5933L41.6606 17.2386L43.3891 17.5021Z" fill="#514520"/>
<path d="M43.0865 19.3298C43.1518 19.4282 43.2079 19.5325 43.2538 19.6414L42.3209 18.2857C42.2746 18.1768 42.2183 18.0725 42.1526 17.9741L43.0865 19.3298Z" fill="black"/>
<path d="M42.1496 17.9741L43.0865 19.3298C43.1518 19.4282 43.2079 19.5325 43.2538 19.6414L42.3209 18.2857C42.2746 18.1768 42.2183 18.0725 42.1526 17.9741" fill="#534621"/>
<path d="M44.4111 17.5943L45.347 18.95C45.0073 18.928 44.6676 18.8989 44.3249 18.8618L43.3891 17.5061C43.7311 17.5415 44.0718 17.5709 44.4111 17.5943Z" fill="black"/>
<path d="M44.4111 17.5943L45.347 18.95C45.0073 18.928 44.6676 18.8989 44.3249 18.8618L43.3891 17.5061C43.7311 17.5442 44.0718 17.5736 44.4111 17.5943Z" fill="#534621"/>
<path d="M45.0103 17.2175L45.9462 18.5723C45.9716 18.6151 45.9802 18.6658 45.9702 18.7145C45.9687 18.7455 45.9585 18.7755 45.9408 18.801C45.923 18.8265 45.8985 18.8465 45.87 18.8588C45.698 18.9004 45.5232 18.9295 45.347 18.946L44.4111 17.5943C44.5874 17.5783 44.7622 17.5491 44.9342 17.5071C44.9629 17.4955 44.9877 17.4758 45.0055 17.4503C45.0233 17.4249 45.0333 17.3949 45.0344 17.3638C45.046 17.3138 45.0374 17.2612 45.0103 17.2175Z" fill="black"/>
<path d="M45.0103 17.2175L45.9462 18.5723C45.9543 18.5847 45.9607 18.5982 45.9652 18.6123L45.0264 17.2566C45.0216 17.2429 45.0152 17.2297 45.0073 17.2175" fill="#534621"/>
<path d="M45.0264 17.2566L45.9622 18.6123C45.9692 18.6454 45.9692 18.6795 45.9622 18.7125C45.9608 18.7418 45.9517 18.7701 45.9359 18.7947C45.92 18.8193 45.898 18.8394 45.8721 18.8528L44.9352 17.4971C44.9613 17.4841 44.9834 17.4643 44.9993 17.4398C45.0151 17.4153 45.0241 17.387 45.0254 17.3578C45.0327 17.3248 45.0327 17.2906 45.0254 17.2576" fill="#564A23"/>
<path d="M44.9432 17.4991L45.8801 18.8548H45.87C45.698 18.8964 45.5232 18.9255 45.347 18.942L44.4111 17.5943C44.5874 17.5783 44.7622 17.5491 44.9342 17.5071H44.9432" fill="#534621"/>
<path d="M44.861 17.1444C44.888 17.1429 44.9149 17.1478 44.9396 17.1588C44.9642 17.1699 44.9859 17.1866 45.0027 17.2077C45.0196 17.2288 45.0312 17.2536 45.0365 17.28C45.0418 17.3065 45.0408 17.3339 45.0334 17.3598C45.0323 17.3908 45.0223 17.4209 45.0045 17.4463C44.9867 17.4718 44.9619 17.4915 44.9332 17.5031C44.7612 17.5451 44.5864 17.5743 44.4101 17.5903C44.0708 17.5696 43.7301 17.5402 43.3881 17.5021L41.6596 17.2386C41.5143 17.2225 41.4261 17.2696 41.3941 17.3809C41.2171 17.3158 41.0364 17.2613 40.853 17.2175C40.6967 17.1815 40.6275 17.1003 40.6446 16.9771C40.6449 16.9461 40.6523 16.9157 40.6664 16.8881C40.6804 16.8605 40.7007 16.8366 40.7255 16.8181C40.7504 16.7997 40.7791 16.7873 40.8096 16.7818C40.8401 16.7763 40.8714 16.778 40.9011 16.7867L41.875 16.8939L44.861 17.1444Z" fill="#AB9244"/>
<path d="M42.3209 18.2857C42.4205 18.5095 42.6045 19.295 42.873 20.6424C42.8821 20.6855 42.8911 20.7296 42.8991 20.7727C42.7849 20.8268 42.6476 20.8899 42.4873 20.9621C41.9646 21.2006 41.4127 21.3691 40.846 21.4631C40.3127 21.5507 39.77 21.5659 39.2327 21.5082C38.4073 21.4343 37.6175 21.1371 36.9481 20.6484C36.304 20.166 35.8054 19.5152 35.5072 18.7677C35.1899 17.9994 35.1008 17.1163 35.2397 16.1183C35.3906 15.9812 35.5315 15.8335 35.6616 15.6764C36.025 15.2396 36.2564 14.6754 36.3559 13.984C36.3901 13.7539 36.3985 13.5207 36.381 13.2887C36.5836 13.0222 36.8082 12.7732 37.0523 12.5442C38.0544 11.6023 39.2959 11.2122 40.7768 11.3738C41.2575 11.4197 41.7271 11.5464 42.1656 11.7486C42.6332 11.9784 43.0842 12.2406 43.5153 12.5331C43.5935 12.5905 43.6841 12.6287 43.7799 12.6444C43.866 12.6544 43.9432 12.5893 44.0113 12.451C44.0975 12.2696 44.1907 12.1844 44.2899 12.1955C44.4051 12.2085 44.4542 12.3718 44.4352 12.6864L44.3129 14.8558C44.3129 14.956 44.3009 15.0352 44.2919 15.0953C44.2698 15.2486 44.2017 15.3177 44.0915 15.3057C43.9813 15.2937 43.9061 15.1985 43.859 15.0171C43.6725 14.2515 43.3152 13.538 42.8139 12.9299C42.3696 12.3874 41.7281 12.0436 41.0303 11.974C40.1105 11.8725 39.3283 12.2359 38.6836 13.0642C38.039 13.8925 37.6302 14.9096 37.4572 16.1153C37.2641 17.46 37.3927 18.5923 37.8429 19.5121C38.2932 20.432 38.9071 20.9347 39.6846 21.0202C40.0402 21.0526 40.3984 21.0001 40.7297 20.8669C41.0965 20.7293 41.3426 20.5656 41.4682 20.3759C41.5938 20.1862 41.6833 19.9036 41.7368 19.5282C41.8557 18.6972 41.9011 18.1761 41.873 17.965C41.8625 17.8779 41.8392 17.7928 41.8039 17.7125C41.8858 17.7392 41.9624 17.7799 42.0303 17.8328C42.1588 17.961 42.2579 18.1155 42.3209 18.2857Z" fill="#AB9244"/>
<path d="M42.3209 18.2857L43.2568 19.6414C43.357 19.8652 43.541 20.6504 43.8089 21.9971L43.836 22.1284L42.8991 20.7727C42.8911 20.7296 42.8821 20.6855 42.873 20.6424C42.6025 19.2957 42.4185 18.5101 42.3209 18.2857Z" fill="black"/>
<path d="M42.3209 18.2857L43.2568 19.6414C43.2806 19.6984 43.3013 19.7566 43.3189 19.8158L42.382 18.46C42.3652 18.4008 42.3448 18.3425 42.3209 18.2857Z" fill="#534621"/>
<path d="M42.379 18.46L43.3159 19.8158C43.4221 20.1645 43.5855 20.8916 43.8059 21.9971L43.833 22.1284L42.8961 20.7727C42.8881 20.7296 42.879 20.6855 42.87 20.6424C42.6496 19.5369 42.4859 18.8094 42.379 18.46Z" fill="#564A23"/>
<path d="M37.882 22.0031C37.508 21.7242 37.1824 21.3856 36.9181 21.0011L35.9822 19.6454C36.2459 20.0301 36.5712 20.3686 36.9451 20.6474C37.6145 21.1361 38.4043 21.4333 39.2297 21.5071C39.767 21.5649 40.3097 21.5497 40.843 21.4621C41.4097 21.3681 41.9616 21.1996 42.4843 20.9611C42.6446 20.8889 42.7818 20.8258 42.8961 20.7717L43.833 22.1274C43.7177 22.1815 43.5804 22.2436 43.4201 22.3158C42.8978 22.5552 42.3458 22.7237 41.7788 22.8168C41.2459 22.9043 40.7036 22.9198 40.1666 22.8629C39.3413 22.7884 38.5517 22.4913 37.882 22.0031Z" fill="black"/>
<path d="M42.8961 20.7727L43.833 22.1284L43.6586 22.2086L42.7217 20.8538L42.8951 20.7727" fill="#564A23"/>
<path d="M42.7217 20.8538L43.6576 22.2086C43.5855 22.2426 43.5053 22.2787 43.4191 22.3168C42.8968 22.5562 42.3448 22.7247 41.7778 22.8178C41.2449 22.9053 40.7026 22.9208 40.1656 22.8639C39.3405 22.789 38.5513 22.4915 37.882 22.0031C37.508 21.7242 37.1824 21.3856 36.9181 21.0011L35.9822 19.6454C36.2459 20.0301 36.5712 20.3686 36.9451 20.6474C37.6145 21.1361 38.4043 21.4333 39.2297 21.5071C39.767 21.5649 40.3097 21.5497 40.843 21.4621C41.4097 21.3681 41.9616 21.1996 42.4843 20.9611L42.7227 20.8528" fill="#534621"/>
<path d="M48.2578 19.5622L47.321 18.2075C47.384 18.276 47.4715 18.3167 47.5645 18.3208L48.5003 19.6765C48.4076 19.672 48.3204 19.6309 48.2578 19.5622Z" fill="black"/>
<path d="M47.5645 18.3208L48.5003 19.6765C48.4076 19.672 48.3204 19.6309 48.2578 19.5622L47.321 18.2075C47.384 18.276 47.4715 18.3167 47.5645 18.3208Z" fill="#534621"/>
<path d="M47.9863 18.6023L48.9222 19.958C48.8766 19.8832 48.8153 19.8192 48.7424 19.7706C48.6695 19.722 48.5869 19.6898 48.5003 19.6765L47.5645 18.3208C47.6509 18.3346 47.7333 18.3669 47.8061 18.4155C47.8789 18.4641 47.9404 18.5278 47.9863 18.6023Z" fill="black"/>
<path d="M47.9863 18.6023L48.9222 19.958C48.8766 19.8832 48.8153 19.8192 48.7424 19.7706C48.6695 19.722 48.5869 19.6898 48.5003 19.6765L47.5645 18.3208C47.6509 18.3346 47.7333 18.3669 47.8061 18.4155C47.8789 18.4641 47.9404 18.5278 47.9863 18.6023Z" fill="#534621"/>
<path d="M50.4222 18.2376L51.3581 19.5983C51.3888 19.6502 51.3988 19.7117 51.3861 19.7707C51.3671 19.8999 51.2809 19.9711 51.1276 19.9771C50.905 19.9865 50.689 20.0557 50.5023 20.1775C50.2732 20.3491 50.0776 20.5614 49.9252 20.8037C49.7248 21.0983 49.3634 21.7717 48.841 22.8238L47.9051 21.4681C48.4262 20.416 48.7876 19.7429 48.9893 19.449C49.1414 19.2065 49.3371 18.9941 49.5665 18.8228C49.7525 18.6989 49.9685 18.6276 50.1917 18.6163C50.345 18.6083 50.4312 18.5392 50.4502 18.4109C50.463 18.3517 50.453 18.2898 50.4222 18.2376Z" fill="black"/>
<path d="M50.4222 18.2376L51.3581 19.5983C51.368 19.6123 51.3754 19.6279 51.3801 19.6444L50.4442 18.2897C50.4396 18.2729 50.4321 18.257 50.4222 18.2426" fill="#534621"/>
<path d="M50.4442 18.2847L51.3801 19.6394C51.3915 19.6805 51.3935 19.7236 51.3861 19.7657C51.3829 19.8036 51.3697 19.8399 51.3476 19.871C51.3256 19.902 51.2956 19.9265 51.2609 19.942L50.325 18.5873C50.3597 18.5717 50.3896 18.5472 50.4116 18.5162C50.4336 18.4851 50.447 18.4488 50.4502 18.4109C50.4577 18.3689 50.4556 18.3258 50.4442 18.2847Z" fill="#564A23"/>
<path d="M50.325 18.5873L51.2609 19.942C51.2187 19.9604 51.1735 19.9706 51.1276 19.9721C50.9694 19.9804 50.8141 20.0181 50.6697 20.0833L49.7358 18.7286C49.8802 18.6631 50.0354 18.625 50.1937 18.6163C50.2396 18.6152 50.2848 18.6053 50.327 18.5873" fill="#534621"/>
<path d="M49.7358 18.7286L50.6717 20.0833C50.6136 20.1104 50.5576 20.1418 50.5043 20.1775C50.2752 20.3491 50.0796 20.5614 49.9272 20.8037C49.7268 21.0983 49.3654 21.7717 48.843 22.8238L47.9071 21.4681C48.4282 20.416 48.7896 19.7429 48.9913 19.449C49.1434 19.2065 49.3391 18.9941 49.5685 18.8228C49.6216 18.7869 49.6776 18.7554 49.7358 18.7286Z" fill="#564A23"/>
<path d="M45.7398 17.7546L46.6757 19.1093C46.7073 19.159 46.7184 19.219 46.7067 19.2767C46.6907 19.3859 46.5885 19.442 46.4001 19.446C45.8991 19.462 45.6185 19.6895 45.5554 20.1294C45.4465 20.8909 45.7187 22.9988 46.3721 26.4531L45.4362 25.0984C44.7829 21.6434 44.5107 19.5355 44.6195 18.7747C44.6827 18.3348 44.9652 18.1063 45.4642 18.0913C45.6526 18.0913 45.7548 18.0302 45.7708 17.922C45.7821 17.8643 45.771 17.8044 45.7398 17.7546Z" fill="black"/>
<path d="M45.7398 17.7546L46.6757 19.1093C46.6864 19.1251 46.6948 19.1423 46.7007 19.1604L45.7648 17.8057C45.7594 17.7874 45.7509 17.7702 45.7398 17.7546Z" fill="#534621"/>
<path d="M45.7648 17.8057L46.7007 19.1604C46.711 19.1983 46.713 19.2379 46.7067 19.2767C46.7029 19.3055 46.6916 19.3328 46.6741 19.356C46.6565 19.3792 46.6332 19.3974 46.6065 19.4089L45.6706 18.0542C45.6974 18.0427 45.7206 18.0245 45.7382 18.0013C45.7557 17.9781 45.767 17.9508 45.7708 17.922C45.7772 17.8832 45.7751 17.8436 45.7648 17.8057Z" fill="#564A23"/>
<path d="M45.6656 18.0542L46.6015 19.4089C46.5378 19.4344 46.4697 19.447 46.4011 19.446C46.2512 19.4474 46.1031 19.4784 45.9652 19.5372L45.0264 18.1815C45.1642 18.1226 45.3124 18.0919 45.4622 18.0913C45.5308 18.0918 45.5988 18.0792 45.6626 18.0542" fill="#534621"/>
<path d="M45.0264 18.1815L45.9622 19.5372C45.8477 19.5908 45.7495 19.6739 45.6777 19.778C45.6059 19.882 45.563 20.0033 45.5534 20.1294C45.4445 20.8909 45.7167 22.9988 46.37 26.4531L45.4342 25.0984C44.7809 21.6434 44.5086 19.5355 44.6175 18.7747C44.627 18.6484 44.6699 18.527 44.7417 18.4228C44.8135 18.3185 44.9118 18.2353 45.0264 18.1815Z" fill="#564A23"/>
<path d="M47.9051 21.4681L48.841 22.8238L47.2087 26.1004L46.2729 24.7457L47.9051 21.4681Z" fill="#5B4E25"/>
<path d="M50.2579 18.1564C50.2887 18.1565 50.3192 18.1637 50.3468 18.1775C50.3745 18.1913 50.3985 18.2113 50.4171 18.236C50.4358 18.2606 50.4485 18.2892 50.4542 18.3196C50.4599 18.3499 50.4586 18.3812 50.4502 18.4109C50.4312 18.5392 50.35 18.6113 50.1917 18.6163C49.9685 18.6276 49.7525 18.6989 49.5665 18.8228C49.3371 18.9941 49.1414 19.2065 48.9893 19.449C48.7889 19.7423 48.4275 20.4153 47.9051 21.4681L46.2729 24.7457C45.4853 26.3489 44.9642 27.3686 44.7097 27.8048L44.1997 27.7487L43.5233 24.0613C43.361 23.1595 43.1513 22.0633 42.8941 20.7727C42.8861 20.7296 42.877 20.6855 42.868 20.6424C42.6008 19.2957 42.4168 18.5101 42.3159 18.2857C42.2523 18.1153 42.1525 17.9608 42.0233 17.8328C41.9554 17.7799 41.8787 17.7392 41.7969 17.7125C41.7198 17.6863 41.6411 17.6649 41.5614 17.6484C41.4241 17.6294 41.361 17.5552 41.383 17.426C41.3852 17.4107 41.3886 17.3956 41.3931 17.3809C41.4251 17.2696 41.5133 17.2226 41.6586 17.2386L43.3871 17.5021C43.7291 17.5402 44.0698 17.5696 44.4091 17.5903C44.6716 17.6073 44.9342 17.6183 45.1957 17.6254C45.36 17.6334 45.4602 17.6394 45.4963 17.6434C45.7027 17.6654 45.7946 17.7583 45.7718 17.922C45.7558 18.0302 45.6536 18.0863 45.4652 18.0913C44.9642 18.1063 44.6837 18.3348 44.6205 18.7747C44.5117 19.5355 44.7839 21.6434 45.4372 25.0984C45.9716 24.0469 46.49 22.9841 46.9923 21.91L47.9152 19.941C48.0181 19.7183 48.0893 19.4821 48.1266 19.2396C48.1636 19.0259 48.1193 18.806 48.0023 18.6234C47.9562 18.5441 47.8931 18.4761 47.8176 18.4241C47.742 18.3721 47.6559 18.3375 47.5655 18.3228C47.365 18.2917 47.2799 18.2145 47.2979 18.0903C47.2983 18.0571 47.3062 18.0245 47.321 17.9948C47.3358 17.9652 47.357 17.9392 47.3832 17.9189C47.4094 17.8986 47.4399 17.8844 47.4723 17.8775C47.5047 17.8706 47.5382 17.871 47.5705 17.8789C47.6907 17.8929 47.84 17.9169 48.0174 17.951C48.3771 18.0252 48.7037 18.0793 48.9963 18.1113C49.268 18.1428 49.5415 18.1552 49.815 18.1484C49.9626 18.1408 50.1106 18.1435 50.2579 18.1564Z" fill="#AB9244"/>
<path d="M44.7097 27.8048L45.6456 29.1595L45.1356 29.1044L44.1997 27.7487L44.7097 27.8048Z" fill="#514521"/>
<path d="M46.2729 24.7457L47.2087 26.1004C46.4212 27.7036 45.9001 28.7233 45.6456 29.1595L44.7097 27.8048C44.9656 27.3659 45.4866 26.3462 46.2729 24.7457Z" fill="black"/>
<path d="M46.2729 24.7457L47.2087 26.1004C46.4212 27.7036 45.9001 28.7233 45.6456 29.1595L44.7097 27.8048C44.9649 27.3659 45.4859 26.3462 46.2729 24.7457Z" fill="#564A23"/>
</svg>
