<?xml version="1.0" encoding="UTF-8"?>
<svg xmlns="http://www.w3.org/2000/svg" id="Layer_1" data-name="Layer 1" width="534.01" height="149.9" viewBox="0 0 534.01 149.9">
  <title>logo-light</title>
  <path d="M547.06,350V463l-31.94,18.09L483,499.17c-.63.34-1.2.9-2,.64-2-1.12-3.75-2.28-5.88-3.37a1.94,1.94,0,0,1-1.16-1.91V408.4c0-1.12.22-1.54,1.42-1.5H517.1c1.09,0,1.42.26,1.42,1.35V445.7a1.64,1.64,0,0,1-1,1.68c-4.27,2.4-8.57,4.8-12.81,7.27-1.34.75-1.38.22-1.38-.9v-29.7c0-1.49-.3-2-1.87-1.94H490.21c-.86,0-1.27,0-1.27,1.16v54.6a1.38,1.38,0,0,0,.19.41l3.74-2c12.66-7.16,25.28-14.31,38-21.42a2.18,2.18,0,0,0,1.24-2.21V366.5c0-1.2-.23-1.61-1.5-1.61H432.47c-1.16,0-1.58.22-1.58,1.53v86.43c0,.6-.18,1.27.6,1.72l13.11,7.49V379.83c0-1.54.41-1.91,1.91-1.91h70c1.61,0,2,.41,2,2v11.46c0,1.35-.38,1.65-1.65,1.65H461.75c-1.57,0-2,.34-2,2v93.06l-43.78-25V350H547.06Z" transform="translate(-415.99 -349.98)" style="fill:#fff"></path>
  <path d="M586.94,378.52h32.88l8,8.08V405l-8.08,8.17H597.28v17.82H587.09Zm28.24,26.21,2.62-2.62V389.86l-2.62-2.66h-18v17.53Z" transform="translate(-415.99 -349.98)" style="fill:#fff"></path>
  <path d="M675.77,413.57v17.37H665.58V416l-4.49-5H644.76V431H634.57V378.55h32.88l8,8.09v15.88l-5.09,5.17Zm-31-11.24h18l2.62-2.62V389.56l-2.62-2.66h-18Z" transform="translate(-415.99 -349.98)" style="fill:#fff"></path>
  <path d="M683.63,422.33v-35.2l8.61-8.61h27.08l8.61,8.61v35.2l-8.61,8.61h-27Zm30.18,0,3.75-3.75V391.17l-3.75-3.74H697.64l-3.75,3.74v27.41l3.75,3.75Z" transform="translate(-415.99 -349.98)" style="fill:#fff"></path>
  <path d="M746.84,387.13H731.19v-8.61h41.49v8.61H757v43.81H746.84Z" transform="translate(-415.99 -349.98)" style="fill:#fff"></path>
  <path d="M777.93,378.52h37.89v8.61H788.11v13.26h25.54v8.46H788.11v13.48h27.71v8.61H777.93Z" transform="translate(-415.99 -349.98)" style="fill:#fff"></path>
  <path d="M821.82,422.33v-35.2l8.61-8.61H856l8.47,8.46v8H854.32v-4.27l-3.52-3.52h-15L832.08,391v27.41l3.74,3.75h15l3.52-3.52v-4.24h10.19v8L856,430.83H830.43Z" transform="translate(-415.99 -349.98)" style="fill:#fff"></path>
  <path d="M882.41,387.13H866.75v-8.61h41.5v8.61H892.59v43.81H882.41Z" transform="translate(-415.99 -349.98)" style="fill:#fff"></path>
  <path d="M921.54,378.52h9.29L950,430.94H939.66l-4.26-11.61H917l-4.27,11.61H902.37ZM933.15,411l-7-19.93h0L919.44,411Z" transform="translate(-415.99 -349.98)" style="fill:#fff"></path>
  <path d="M586.83,464.35V438.66h15.91a8.65,8.65,0,0,1,3.75.75,5.59,5.59,0,0,1,2.51,2.13,6.17,6.17,0,0,1,.86,3.3,7.09,7.09,0,0,1-.53,2.69,5.56,5.56,0,0,1-1.53,2.06,6.71,6.71,0,0,1-2.25,1.28h0a7.1,7.1,0,0,1,2.62,1.08,5.92,5.92,0,0,1,1.8,2.14,7.54,7.54,0,0,1,.64,3.18,7,7,0,0,1-1.05,4,6.57,6.57,0,0,1-2.85,2.25,11.58,11.58,0,0,1-4,.71Zm3.74-14.76h11a5.62,5.62,0,0,0,2.28-.48,4.38,4.38,0,0,0,1.57-1.39,3.71,3.71,0,0,0,.56-2.1,3.39,3.39,0,0,0-1.08-2.81,4.34,4.34,0,0,0-2.89-.89H590.57Zm0,11.5h11.76a4.9,4.9,0,0,0,3.15-1,3.77,3.77,0,0,0,1.2-3.1,4.39,4.39,0,0,0-.53-2.33,3.34,3.34,0,0,0-1.53-1.42,6.2,6.2,0,0,0-2.48-.45H590.57Z" transform="translate(-415.99 -349.98)" style="fill:#fff"></path>
  <path d="M624.76,464.8a12.46,12.46,0,0,1-5.54-1.13,7.72,7.72,0,0,1-3.48-3.37,12.75,12.75,0,0,1-1.2-5.8,12.38,12.38,0,0,1,1.2-5.77,7.52,7.52,0,0,1,3.44-3.41,12.76,12.76,0,0,1,5.58-1.12,11.71,11.71,0,0,1,5.47,1.12,7.51,7.51,0,0,1,3.26,3.22,10.73,10.73,0,0,1,1.08,5.13v1.88H618.21a8.51,8.51,0,0,0,.9,3.74,4.62,4.62,0,0,0,2.28,2.1,8.55,8.55,0,0,0,3.52.67,7.12,7.12,0,0,0,2.47-.37,5.54,5.54,0,0,0,1.88-.94,4.81,4.81,0,0,0,1.27-1.35,3.35,3.35,0,0,0,.49-1.68h3.44a6.28,6.28,0,0,1-.63,2.73,5.93,5.93,0,0,1-1.8,2.29,8.46,8.46,0,0,1-3,1.57A14.64,14.64,0,0,1,624.76,464.8Zm-6.55-12H630.9a6.57,6.57,0,0,0-.48-2.73,4.61,4.61,0,0,0-1.35-1.8,5.11,5.11,0,0,0-2-1,8.31,8.31,0,0,0-2.43-.3,7.9,7.9,0,0,0-3.26.6,5.09,5.09,0,0,0-2.25,1.91A7.48,7.48,0,0,0,618.21,452.81Z" transform="translate(-415.99 -349.98)" style="fill:#fff"></path>
  <path d="M649.25,471V444.76h2.66l.34,3h.26a7.18,7.18,0,0,1,3-2.58,9,9,0,0,1,3.93-.83,10,10,0,0,1,4.8,1.09,7,7,0,0,1,3,3.41,13.89,13.89,0,0,1,1,5.87,13.72,13.72,0,0,1-1,5.7,7.47,7.47,0,0,1-3,3.4,9.06,9.06,0,0,1-4.61,1.13,10.92,10.92,0,0,1-2.73-.34,7.38,7.38,0,0,1-2.32-1,7.18,7.18,0,0,1-1.8-1.72h-.22v9.25Zm9.59-9.17a6.73,6.73,0,0,0,3.26-.75,4.9,4.9,0,0,0,2-2.25,10,10,0,0,0,.68-3.93v-.75a9.44,9.44,0,0,0-.72-4,4.47,4.47,0,0,0-2.06-2.25,7,7,0,0,0-3.18-.67,7.12,7.12,0,0,0-3.33.74,5.32,5.32,0,0,0-2.1,2.33,10.15,10.15,0,0,0-.71,4v.52a9.51,9.51,0,0,0,.49,3.3,5.27,5.27,0,0,0,1.27,2.13,5.11,5.11,0,0,0,1.95,1.2,7.42,7.42,0,0,0,2.43.41Z" transform="translate(-415.99 -349.98)" style="fill:#fff"></path>
  <path d="M682.25,464.8a12.5,12.5,0,0,1-5.55-1.13,7.72,7.72,0,0,1-3.48-3.37,12.75,12.75,0,0,1-1.2-5.8,12.5,12.5,0,0,1,1.2-5.77,7.5,7.5,0,0,1,3.45-3.41,12.73,12.73,0,0,1,5.58-1.12,11.7,11.7,0,0,1,5.46,1.12,7.51,7.51,0,0,1,3.26,3.22,10.86,10.86,0,0,1,1.09,5.13v1.88h-16.4a8.37,8.37,0,0,0,.89,3.74,4.68,4.68,0,0,0,2.29,2.1,8.49,8.49,0,0,0,3.52.67,7.16,7.16,0,0,0,2.47-.37,5.49,5.49,0,0,0,1.87-.94A4.85,4.85,0,0,0,688,459.4a3.44,3.44,0,0,0,.48-1.68h3.45a6.15,6.15,0,0,1-.64,2.73,5.75,5.75,0,0,1-1.8,2.29,8.5,8.5,0,0,1-3,1.57A14.75,14.75,0,0,1,682.25,464.8Zm-6.56-12h12.7a6.74,6.74,0,0,0-.49-2.73,4.61,4.61,0,0,0-1.35-1.8,5.07,5.07,0,0,0-1.94-1,8.42,8.42,0,0,0-2.44-.3,8,8,0,0,0-3.26.6,5,5,0,0,0-2.24,1.91A7.49,7.49,0,0,0,675.69,452.81Z" transform="translate(-415.99 -349.98)" style="fill:#fff"></path>
  <path d="M696.59,464.35v-19.7h2.81l.26,3.44h.26a10,10,0,0,1,.9-1.79,4.84,4.84,0,0,1,1.65-1.5,5,5,0,0,1,2.54-.6,5.34,5.34,0,0,1,1.13,0,2.83,2.83,0,0,1,.9.22v3.11h-1.61a5.08,5.08,0,0,0-2.51.53,4.52,4.52,0,0,0-1.65,1.42,6.76,6.76,0,0,0-.9,2.06,9.77,9.77,0,0,0-.3,2.28v10.45Z" transform="translate(-415.99 -349.98)" style="fill:#fff"></path>
  <path d="M711.57,464.35V447.49h-3.48v-2.84h3.44V441.8a6.31,6.31,0,0,1,.45-2.43,3.74,3.74,0,0,1,1.5-1.76,5.47,5.47,0,0,1,2.88-.68h2.32l1,.27v2.39h-2.29a2.7,2.7,0,0,0-1.8.49,2.07,2.07,0,0,0-.56,1.57v2.81h4.65v2.85H715v16.85Z" transform="translate(-415.99 -349.98)" style="fill:#fff"></path>
  <path d="M731.83,464.8a12.5,12.5,0,0,1-5.55-1.13,7.72,7.72,0,0,1-3.48-3.37,14.54,14.54,0,0,1,0-11.57,7.5,7.5,0,0,1,3.45-3.41,12.62,12.62,0,0,1,5.58-1.12,11.7,11.7,0,0,1,5.46,1.12,7.51,7.51,0,0,1,3.26,3.22,10.86,10.86,0,0,1,1.09,5.13v1.88h-16.4a8.25,8.25,0,0,0,.9,3.74,4.62,4.62,0,0,0,2.28,2.1,8.49,8.49,0,0,0,3.52.67,7.12,7.12,0,0,0,2.47-.37,5.4,5.4,0,0,0,1.87-.94,4.85,4.85,0,0,0,1.28-1.35,3.44,3.44,0,0,0,.48-1.68h3.45a6.15,6.15,0,0,1-.64,2.73,5.75,5.75,0,0,1-1.8,2.29,8.5,8.5,0,0,1-3,1.57A14.75,14.75,0,0,1,731.83,464.8Zm-6.56-12H738a6.57,6.57,0,0,0-.48-2.73,4.7,4.7,0,0,0-1.35-1.8,5.18,5.18,0,0,0-2-1,8.31,8.31,0,0,0-2.43-.3,7.9,7.9,0,0,0-3.26.6,5.09,5.09,0,0,0-2.25,1.91A7.54,7.54,0,0,0,725.27,452.81Z" transform="translate(-415.99 -349.98)" style="fill:#fff"></path>
  <path d="M755.19,464.8a11.63,11.63,0,0,1-5.5-1.17,7.45,7.45,0,0,1-3.37-3.4,13,13,0,0,1-1.12-5.73,12.71,12.71,0,0,1,1.12-5.73,7.51,7.51,0,0,1,3.37-3.45,12.45,12.45,0,0,1,5.54-1.12,13.19,13.19,0,0,1,3.75.49,7.91,7.91,0,0,1,2.84,1.53,6.8,6.8,0,0,1,1.84,2.44,8.6,8.6,0,0,1,.6,3.37h-3.52a5.17,5.17,0,0,0-.71-2.85,4.15,4.15,0,0,0-1.95-1.61,7.49,7.49,0,0,0-3-.52,7,7,0,0,0-3.33.71,4.88,4.88,0,0,0-2.25,2.28,9,9,0,0,0-.79,4.08v.75a9.07,9.07,0,0,0,.79,4,5,5,0,0,0,2.21,2.32,7.45,7.45,0,0,0,3.44.75,7.29,7.29,0,0,0,3-.56,4.21,4.21,0,0,0,2-1.69,4.94,4.94,0,0,0,.71-2.73h3.41a7.63,7.63,0,0,1-.64,3.26,6.58,6.58,0,0,1-1.8,2.47,7.71,7.71,0,0,1-2.88,1.53A11.93,11.93,0,0,1,755.19,464.8Z" transform="translate(-415.99 -349.98)" style="fill:#fff"></path>
  <path d="M774.41,464.8a5.07,5.07,0,0,1-2.59-.57,3.15,3.15,0,0,1-1.42-1.57,6.54,6.54,0,0,1-.45-2.55V447.49H766.8v-2.84H770l.68-5.58h2.73v5.58h4.46v2.84h-4.46v12.1a3.27,3.27,0,0,0,.38,1.76,2,2,0,0,0,1.68.6h2.4v2.25a6.3,6.3,0,0,1-1,.3,2.59,2.59,0,0,0-1.27.22Z" transform="translate(-415.99 -349.98)" style="fill:#fff"></path>
  <path d="M782,464.35V437.27h3.48v27.08Z" transform="translate(-415.99 -349.98)" style="fill:#fff"></path>
  <path d="M792.68,471.31a10.29,10.29,0,0,1-1.57,0l-1.2-.26v-2.43h1.91a6.56,6.56,0,0,0,2.4-.42,3.73,3.73,0,0,0,1.68-1.31,8.28,8.28,0,0,0,1.31-2.43l-8.69-19.7h3.75L796.65,455a17.53,17.53,0,0,1,.75,1.72c.26.71.52,1.46.82,2.17s.53,1.39.75,2h.23a4.46,4.46,0,0,1,.41-1.2c.19-.49.34-1,.52-1.61s.41-1.16.64-1.69.37-1,.52-1.46L805,444.76h3.74l-7.49,19.06c-.48,1.2-1,2.25-1.49,3.22a10.61,10.61,0,0,1-1.69,2.4,6.32,6.32,0,0,1-2.21,1.46A8.17,8.17,0,0,1,792.68,471.31Z" transform="translate(-415.99 -349.98)" style="fill:#fff"></path>
  <path d="M829.72,464.8a16.91,16.91,0,0,1-3.75-.42,9.6,9.6,0,0,1-2.92-1.12,4.88,4.88,0,0,1-2.47-4.38,1.21,1.21,0,0,1,0-.38.71.71,0,0,1,0-.29h3.59v.48a2.62,2.62,0,0,0,.83,2,4.74,4.74,0,0,0,2.1,1.05,13.19,13.19,0,0,0,2.8.3,12.64,12.64,0,0,0,2.74-.3,4.6,4.6,0,0,0,2-1,2.07,2.07,0,0,0,.75-1.69,2.23,2.23,0,0,0-.82-1.91,5.86,5.86,0,0,0-2.32-1l-3.37-.71c-1-.23-2-.45-2.89-.71a11.9,11.9,0,0,1-2.43-1.05,4.74,4.74,0,0,1-1.61-1.57,4.54,4.54,0,0,1-.6-2.44,4.35,4.35,0,0,1,.6-2.36,4.7,4.7,0,0,1,1.68-1.72,7.51,7.51,0,0,1,2.74-1.09,16.2,16.2,0,0,1,3.74-.37,13.57,13.57,0,0,1,3.75.41,8.44,8.44,0,0,1,2.62,1.12,5.55,5.55,0,0,1,1.61,1.73,4.79,4.79,0,0,1,.52,2.17V450a.76.76,0,0,0,0,.3h-3.52V450a2.55,2.55,0,0,0-.56-1.68,3.9,3.9,0,0,0-1.68-1.05,9.25,9.25,0,0,0-2.66-.34,14.12,14.12,0,0,0-1.84,0,7.56,7.56,0,0,0-1.61.45,2.93,2.93,0,0,0-1.2.79,1.83,1.83,0,0,0,.38,2.73,5.48,5.48,0,0,0,2.09.86l2.74.64,3.07.67a13.89,13.89,0,0,1,2.73,1,5.08,5.08,0,0,1,1.91,1.68,4.68,4.68,0,0,1,.71,2.77,5.14,5.14,0,0,1-2.47,4.72,8.75,8.75,0,0,1-2.88,1.09A17.06,17.06,0,0,1,829.72,464.8Z" transform="translate(-415.99 -349.98)" style="fill:#fff"></path>
  <path d="M852.45,464.8a12.43,12.43,0,0,1-5.54-1.13,7.45,7.45,0,0,1-3.49-3.37,14.54,14.54,0,0,1,0-11.57,7.5,7.5,0,0,1,3.45-3.41,12.62,12.62,0,0,1,5.58-1.12,11.76,11.76,0,0,1,5.47,1.12,7.54,7.54,0,0,1,3.25,3.22,10.86,10.86,0,0,1,1.09,5.13v1.88h-16.4a8.25,8.25,0,0,0,.9,3.74,4.62,4.62,0,0,0,2.28,2.1,8.49,8.49,0,0,0,3.52.67,7.12,7.12,0,0,0,2.47-.37,5.4,5.4,0,0,0,1.87-.94,4.85,4.85,0,0,0,1.28-1.35,3.34,3.34,0,0,0,.48-1.68h3.45a6.61,6.61,0,0,1-2.44,5,8.5,8.5,0,0,1-3,1.57A14.75,14.75,0,0,1,852.45,464.8Zm-6.56-12h12.7a6.57,6.57,0,0,0-.49-2.73,4.78,4.78,0,0,0-1.35-1.8,5.07,5.07,0,0,0-1.94-1,8.42,8.42,0,0,0-2.44-.3,8,8,0,0,0-3.26.6,5,5,0,0,0-2.24,1.91A7.49,7.49,0,0,0,845.89,452.81Z" transform="translate(-415.99 -349.98)" style="fill:#fff"></path>
  <path d="M875.82,464.8a11.53,11.53,0,0,1-5.51-1.17,7.45,7.45,0,0,1-3.37-3.4,13,13,0,0,1-1.12-5.73,12.85,12.85,0,0,1,1.12-5.73,7.51,7.51,0,0,1,3.37-3.45,12.31,12.31,0,0,1,5.54-1.12,13.19,13.19,0,0,1,3.75.49,7.91,7.91,0,0,1,2.84,1.53,6.8,6.8,0,0,1,1.84,2.44,8.6,8.6,0,0,1,.6,3.37h-3.52a5.17,5.17,0,0,0-.71-2.85,4.37,4.37,0,0,0-1.95-1.61,7.49,7.49,0,0,0-3-.52,7,7,0,0,0-3.33.71,4.88,4.88,0,0,0-2.25,2.28,9,9,0,0,0-.79,4.08v.75a9.07,9.07,0,0,0,.79,4,5,5,0,0,0,2.21,2.32,7.46,7.46,0,0,0,3.45.75,7.62,7.62,0,0,0,2.95-.56,4.43,4.43,0,0,0,2-1.69,4.94,4.94,0,0,0,.71-2.73h3.41a8.28,8.28,0,0,1-.64,3.26,6.58,6.58,0,0,1-1.8,2.47,7.71,7.71,0,0,1-2.88,1.53A11.87,11.87,0,0,1,875.82,464.8Z" transform="translate(-415.99 -349.98)" style="fill:#fff"></path>
  <path d="M896.41,464.8a7.93,7.93,0,0,1-5.28-1.65,6.8,6.8,0,0,1-1.91-5.43V444.65h3.48v12.51a5.93,5.93,0,0,0,.38,2.32,2.9,2.9,0,0,0,1,1.38,3.83,3.83,0,0,0,1.54.72,10.53,10.53,0,0,0,1.94.18,7,7,0,0,0,3-.71,6,6,0,0,0,2.32-2.06,5.36,5.36,0,0,0,.9-3.11V444.65h3.48v19.7h-2.77l-.3-3.22h-.3a8.49,8.49,0,0,1-2.14,2.17,7.91,7.91,0,0,1-2.58,1.16A12.63,12.63,0,0,1,896.41,464.8Z" transform="translate(-415.99 -349.98)" style="fill:#fff"></path>
  <path d="M912.78,464.35v-19.7h2.81l.26,3.44h.26a7.71,7.71,0,0,1,.9-1.79,4.49,4.49,0,0,1,1.65-1.5,5,5,0,0,1,2.54-.6,5.34,5.34,0,0,1,1.13,0,2.71,2.71,0,0,1,.89.22v3.11h-1.68a5.08,5.08,0,0,0-2.51.53,4.27,4.27,0,0,0-1.65,1.42,7,7,0,0,0-.9,2.06,9.77,9.77,0,0,0-.3,2.28v10.45Z" transform="translate(-415.99 -349.98)" style="fill:#fff"></path>
  <path d="M935.36,464.8a12.43,12.43,0,0,1-5.54-1.13,7.45,7.45,0,0,1-3.49-3.37,14.54,14.54,0,0,1,0-11.57,7.5,7.5,0,0,1,3.45-3.41,12.62,12.62,0,0,1,5.58-1.12,11.89,11.89,0,0,1,5.47,1.12,7.54,7.54,0,0,1,3.25,3.22,11.23,11.23,0,0,1,1.09,5.13v1.88h-16.4a7.88,7.88,0,0,0,.9,3.74,4.45,4.45,0,0,0,2.28,2.1,8.49,8.49,0,0,0,3.52.67,7.12,7.12,0,0,0,2.47-.37,5.88,5.88,0,0,0,1.87-.94,4.85,4.85,0,0,0,1.28-1.35,3.67,3.67,0,0,0,.48-1.68H945a6.82,6.82,0,0,1-.64,2.73,6.57,6.57,0,0,1-1.79,2.29,8.63,8.63,0,0,1-3,1.57A14.75,14.75,0,0,1,935.36,464.8Zm-6.56-12h12.7a6.57,6.57,0,0,0-.49-2.73,5.3,5.3,0,0,0-1.35-1.8,5.07,5.07,0,0,0-1.94-1,8.42,8.42,0,0,0-2.44-.3,7.89,7.89,0,0,0-3.25.6,5,5,0,0,0-2.25,1.91A7,7,0,0,0,928.8,452.81Z" transform="translate(-415.99 -349.98)" style="fill:#fff"></path>
</svg>
